<?xml version="1.0" encoding="UTF-8" standalone="no"?>
<!-- Created with Inkscape (http://www.inkscape.org/) -->

<svg
   xmlns:dc="http://purl.org/dc/elements/1.1/"
   xmlns:cc="http://creativecommons.org/ns#"
   xmlns:rdf="http://www.w3.org/1999/02/22-rdf-syntax-ns#"
   xmlns:svg="http://www.w3.org/2000/svg"
   xmlns="http://www.w3.org/2000/svg"
   xmlns:xlink="http://www.w3.org/1999/xlink"
   xmlns:sodipodi="http://sodipodi.sourceforge.net/DTD/sodipodi-0.dtd"
   xmlns:inkscape="http://www.inkscape.org/namespaces/inkscape"
   width="174"
   height="174"
   id="svg2"
   version="1.1"
   inkscape:version="0.48.2 r9819"
   sodipodi:docname="camera_icon.svg">
  <defs
     id="defs4">
    <linearGradient
       inkscape:collect="always"
       id="linearGradient3680">
      <stop
         style="stop-color:#babdb6;stop-opacity:1"
         offset="0"
         id="stop3682" />
      <stop
         id="stop3692"
         offset="0.20424372"
         style="stop-color:#dbded8;stop-opacity:1;" />
      <stop
         id="stop3688"
         offset="0.44099137"
         style="stop-color:#d3d7cf;stop-opacity:1" />
      <stop
         style="stop-color:#eeeeec;stop-opacity:1"
         offset="0.69693315"
         id="stop3690" />
      <stop
         style="stop-color:#babdb6;stop-opacity:1"
         offset="1"
         id="stop3684" />
    </linearGradient>
    <linearGradient
       inkscape:collect="always"
       id="linearGradient3658">
      <stop
         style="stop-color:#888a85;stop-opacity:1;"
         offset="0"
         id="stop3660" />
      <stop
         style="stop-color:#eeeeec;stop-opacity:1"
         offset="1"
         id="stop3662" />
    </linearGradient>
    <inkscape:perspective
       sodipodi:type="inkscape:persp3d"
       inkscape:vp_x="0 : 526.18109 : 1"
       inkscape:vp_y="0 : 1000 : 0"
       inkscape:vp_z="744.09448 : 526.18109 : 1"
       inkscape:persp3d-origin="372.04724 : 350.78739 : 1"
       id="perspective10" />
    <linearGradient
       inkscape:collect="always"
       xlink:href="#linearGradient3658"
       id="linearGradient3664"
       x1="483.3075"
       y1="16.779177"
       x2="483.3075"
       y2="66.326904"
       gradientUnits="userSpaceOnUse" />
    <linearGradient
       inkscape:collect="always"
       xlink:href="#linearGradient3658"
       id="linearGradient3668"
       gradientUnits="userSpaceOnUse"
       x1="483.3075"
       y1="16.779177"
       x2="483.3075"
       y2="66.326904" />
    <linearGradient
       inkscape:collect="always"
       xlink:href="#linearGradient3680"
       id="linearGradient3686"
       x1="487.19656"
       y1="24.228922"
       x2="499.59357"
       y2="87.50882"
       gradientUnits="userSpaceOnUse"
       gradientTransform="translate(-88.388348,30.405592)" />
  </defs>
  <sodipodi:namedview
     id="base"
     pagecolor="#ffffff"
     bordercolor="#666666"
     borderopacity="1.0"
     inkscape:pageopacity="0.0"
     inkscape:pageshadow="2"
     inkscape:zoom="2"
     inkscape:cx="70.68874"
     inkscape:cy="6.72498"
     inkscape:document-units="px"
     inkscape:current-layer="g3081"
     showgrid="false"
     inkscape:window-width="1920"
     inkscape:window-height="1102"
     inkscape:window-x="0"
     inkscape:window-y="0"
     inkscape:window-maximized="1"
     showguides="true"
     inkscape:guide-bbox="true"
     fit-margin-top="0"
     fit-margin-left="0"
     fit-margin-right="0"
     fit-margin-bottom="0" />
  <metadata
     id="metadata7">
    <rdf:RDF>
      <cc:Work
         rdf:about="">
        <dc:format>image/svg+xml</dc:format>
        <dc:type
           rdf:resource="http://purl.org/dc/dcmitype/StillImage" />
        <dc:title />
      </cc:Work>
    </rdf:RDF>
  </metadata>
  <g
     inkscape:label="Capa 1"
     inkscape:groupmode="layer"
     id="layer1"
     transform="translate(-146.5,-122.8125)">
    <g
       id="g3081">
      <g
         id="g5639"
         transform="translate(2,-20.23176)">
        <path
           sodipodi:nodetypes="sccssccccccccccccccsscccccsssss"
           inkscape:connector-curvature="0"
           style="fill:#95ab63;fill-opacity:1;stroke:none"
           d="m 247.88988,163.27602 c -18.97092,0 -34.71042,13.8056 -37.72982,31.91637 l -4.69104,0.89216 c -5.51602,-9.31836 -15.66626,-15.56966 -27.28288,-15.56966 -17.50389,0 -31.68614,14.18224 -31.68614,31.68613 0,14.88372 10.25554,27.36018 24.08837,30.7652 l 0,3.53986 -6.41781,0 -0.0288,-0.28779 -7.59776,-2.82038 -5.3242,0 8.40359,17.49788 3.10818,-0.8346 1.72676,-2.82038 6.13002,0 0,39.57169 110.13882,0 0,-65.78974 -8.46115,0 c 8.48822,-7.01803 13.90046,-17.62487 13.90046,-29.4989 0,-21.13164 -17.14498,-38.24784 -38.27662,-38.24784 z m -33.24023,57.18469 c 2.2993,4.03273 5.30546,7.61981 8.86406,10.56205 l -19.82901,0 c 2.07601,-2.80822 3.68699,-5.97157 4.7486,-9.38209 z m 55.02624,63.0557 c 1.90734,0 3.45353,1.5462 3.45353,3.45353 0,1.90733 -1.54619,3.45353 -3.45353,3.45353 -1.90733,0 -3.45353,-1.5462 -3.45353,-3.45353 0,-1.90733 1.5462,-3.45353 3.45353,-3.45353 z"
           id="path2829" />
        <path
           inkscape:connector-curvature="0"
           id="path3749"
           d="m 247.34307,181.29193 c -10.68106,0 -19.33977,8.65871 -19.33977,19.33977 0,10.68106 8.65871,19.33976 19.33977,19.33976 10.68106,0 19.33976,-8.6587 19.33976,-19.33976 0,-10.68106 -8.6587,-19.33977 -19.33976,-19.33977 z m -1.84668,5.70792 c 1.73081,0 3.13936,1.39175 3.13936,3.12256 0,1.73082 -1.40855,3.13936 -3.13936,3.13936 -1.73082,0 -3.13935,-1.40854 -3.13935,-3.13936 0,-1.73081 1.40853,-3.12256 3.13935,-3.12256 z m 9.68667,5.87579 c 1.73082,0 3.13935,1.40854 3.13935,3.13936 0,1.73081 -1.40853,3.13935 -3.13935,3.13935 -1.73082,0 -3.13935,-1.40854 -3.13935,-3.13935 0,-1.73082 1.40853,-3.13936 3.13935,-3.13936 z m -17.09018,2.46784 c 1.73082,0 3.12257,1.40854 3.12257,3.13936 0,1.73081 -1.39175,3.13935 -3.12257,3.13935 -1.73081,0 -3.13935,-1.40854 -3.13935,-3.13935 0,-1.73082 1.40854,-3.13936 3.13935,-3.13936 z m 15.9486,8.56188 c 1.73082,0 3.13935,1.39174 3.13935,3.12256 0,1.73082 -1.40853,3.13936 -3.13935,3.13936 -1.73082,0 -3.13936,-1.40854 -3.13936,-3.13936 0,-1.73082 1.40854,-3.12256 3.13936,-3.12256 z m -11.58372,1.89704 c 1.73082,0 3.13936,1.39175 3.13936,3.12257 0,1.7308 -1.40854,3.13935 -3.13936,3.13935 -1.73082,0 -3.13935,-1.40855 -3.13935,-3.13935 0,-1.73082 1.40853,-3.12257 3.13935,-3.12257 z"
           style="fill:#ffffff;fill-opacity:1;stroke:none" />
        <path
           inkscape:connector-curvature="0"
           style="fill:#ffffff;fill-opacity:1;stroke:none"
           d="m 178.27247,195.10605 c -8.64657,0 -15.656,7.00943 -15.656,15.656 0,8.64657 7.00943,15.656 15.656,15.656 8.64657,0 15.656,-7.00943 15.656,-15.656 0,-8.64657 -7.00943,-15.656 -15.656,-15.656 z m -1.49493,4.62069 c 1.40114,0 2.54139,1.12666 2.54139,2.52779 0,1.40114 -1.14025,2.54139 -2.54139,2.54139 -1.40113,0 -2.54138,-1.14025 -2.54138,-2.54139 0,-1.40113 1.14025,-2.52779 2.54138,-2.52779 z m 7.84159,4.7566 c 1.40114,0 2.54138,1.14025 2.54138,2.54138 0,1.40113 -1.14024,2.54139 -2.54138,2.54139 -1.40114,0 -2.54137,-1.14026 -2.54137,-2.54139 0,-1.40113 1.14023,-2.54138 2.54137,-2.54138 z m -13.8349,1.99777 c 1.40113,0 2.52779,1.14025 2.52779,2.54138 0,1.40113 -1.12666,2.54139 -2.52779,2.54139 -1.40113,0 -2.54139,-1.14026 -2.54139,-2.54139 0,-1.40113 1.14026,-2.54138 2.54139,-2.54138 z m 12.91076,6.93105 c 1.40114,0 2.54139,1.12664 2.54139,2.52778 0,1.40114 -1.14025,2.54139 -2.54139,2.54139 -1.40113,0 -2.54138,-1.14025 -2.54138,-2.54139 0,-1.40114 1.14025,-2.52778 2.54138,-2.52778 z m -9.37729,1.5357 c 1.40114,0 2.54139,1.12665 2.54139,2.52779 0,1.40113 -1.14025,2.54138 -2.54139,2.54138 -1.40114,0 -2.54138,-1.14025 -2.54138,-2.54138 0,-1.40114 1.14024,-2.52779 2.54138,-2.52779 z"
           id="path3751" />
        <path
           inkscape:connector-curvature="0"
           style="fill:#95ab63;fill-opacity:1;stroke:none"
           d="m 316.5,226.96486 -19.4261,11.77078 -15.19554,0 0,29.32623 15.19554,0 19.4261,11.77078 0,-52.86779 z"
           id="rect3789" />
      </g>
      <rect
         style="fill:none;fill-opacity:1;stroke:#95ab63"
         id="rect5645"
         width="174"
         height="174"
         x="-217.5"
         y="-29.5"
         transform="translate(146.5,122.8125)" />
      <rect
         y="281.3125"
         x="-71"
         height="174"
         width="174"
         id="rect5647"
         style="fill:none;stroke:#95ab63" />
    </g>
  </g>
</svg>
