<?xml version="1.0" encoding="UTF-8" standalone="no"?>
<!-- Created with Inkscape (http://www.inkscape.org/) -->

<svg
   xmlns:dc="http://purl.org/dc/elements/1.1/"
   xmlns:cc="http://creativecommons.org/ns#"
   xmlns:rdf="http://www.w3.org/1999/02/22-rdf-syntax-ns#"
   xmlns:svg="http://www.w3.org/2000/svg"
   xmlns="http://www.w3.org/2000/svg"
   xmlns:sodipodi="http://sodipodi.sourceforge.net/DTD/sodipodi-0.dtd"
   xmlns:inkscape="http://www.inkscape.org/namespaces/inkscape"
   width="1166"
   height="55"
   id="svg4114"
   version="1.1"
   inkscape:version="0.48.2 r9819"
   sodipodi:docname="logo-menu.svg">
  <defs
     id="defs4116" />
  <sodipodi:namedview
     id="base"
     pagecolor="#ffffff"
     bordercolor="#666666"
     borderopacity="1.0"
     inkscape:pageopacity="0.0"
     inkscape:pageshadow="2"
     inkscape:zoom="5.6568542"
     inkscape:cx="710.69666"
     inkscape:cy="28.501632"
     inkscape:document-units="px"
     inkscape:current-layer="g4573"
     showgrid="false"
     inkscape:window-width="1920"
     inkscape:window-height="1102"
     inkscape:window-x="0"
     inkscape:window-y="0"
     inkscape:window-maximized="1" />
  <metadata
     id="metadata4119">
    <rdf:RDF>
      <cc:Work
         rdf:about="">
        <dc:format>image/svg+xml</dc:format>
        <dc:type
           rdf:resource="http://purl.org/dc/dcmitype/StillImage" />
        <dc:title />
      </cc:Work>
    </rdf:RDF>
  </metadata>
  <g
     inkscape:label="Layer 1"
     inkscape:groupmode="layer"
     id="layer1"
     transform="translate(0,-997.36218)">
    <g
       id="g4664"
       transform="translate(-332.00922,487.14347)">
      <g
         id="g4573"
         transform="translate(566.83756,336.15492)">
        <g
           id="g4642"
           style="fill:#a4b0b0;fill-opacity:1"
           transform="translate(-107.313,34.725393)">
          <g
             transform="matrix(1.25,0,0,-1.25,506.20666,181.88679)"
             id="g2186"
             style="fill:#a4b0b0;fill-opacity:1">
            <path
               inkscape:connector-curvature="0"
               id="path2188"
               style="fill:#a4b0b0;fill-opacity:1;fill-rule:nonzero;stroke:none"
               d="m 0,0 c -2.188,0.49 -4.421,0.768 -6.641,1.006 -1.58,0.167 -3.159,0.31 -4.72,0.516 -1.555,0.213 -3.114,0.489 -4.518,1.073 -0.695,0.291 -1.349,0.676 -1.865,1.183 -0.521,0.501 -0.887,1.133 -0.998,1.823 -0.115,0.686 0.015,1.413 0.337,2.053 0.319,0.643 0.831,1.194 1.437,1.58 0.611,0.389 1.334,0.586 2.056,0.547 0.723,-0.033 1.44,-0.329 2.039,-0.761 0.596,-0.43 0.987,-1.117 0.96,-1.874 -0.01,-0.376 -0.109,-0.754 -0.282,-1.1 -0.179,-0.332 -0.399,-0.692 -0.773,-0.842 0.197,0.039 0.369,0.163 0.519,0.297 0.15,0.137 0.279,0.297 0.387,0.469 0.219,0.343 0.373,0.736 0.426,1.152 0.057,0.414 0.009,0.856 -0.161,1.254 -0.169,0.398 -0.443,0.746 -0.764,1.025 -0.639,0.549 -1.433,0.921 -2.296,1.021 -0.862,0.1 -1.748,-0.118 -2.493,-0.551 -0.751,-0.43 -1.364,-1.082 -1.769,-1.85 -0.404,-0.765 -0.595,-1.674 -0.442,-2.556 0.143,-0.883 0.617,-1.688 1.24,-2.282 0.627,-0.597 1.375,-1.015 2.141,-1.324 1.548,-0.603 3.159,-0.812 4.742,-0.984 1.59,-0.162 3.175,-0.24 4.753,-0.352 2.22,-0.151 4.446,-0.371 6.616,-0.836 C -0.047,-0.208 -0.022,-0.104 0,0" />
          </g>
          <g
             transform="matrix(1.25,0,0,-1.25,469.08996,163.36517)"
             id="g2190"
             style="fill:#a4b0b0;fill-opacity:1">
            <path
               inkscape:connector-curvature="0"
               id="path2192"
               style="fill:#a4b0b0;fill-opacity:1;fill-rule:nonzero;stroke:none"
               d="m 0,0 c -0.196,-0.811 -0.227,-1.65 -0.115,-2.467 0.216,-1.639 0.998,-3.145 2.023,-4.388 1.033,-1.25 2.321,-2.253 3.696,-3.068 1.171,-0.687 2.415,-1.243 3.697,-1.679 0.021,0.103 0.042,0.204 0.064,0.305 -1.25,0.433 -2.46,0.978 -3.581,1.67 C 4.453,-8.799 3.22,-7.798 2.259,-6.573 1.297,-5.357 0.618,-3.914 0.429,-2.396 0.235,-0.894 0.591,0.712 1.573,1.829 2.058,2.382 2.695,2.806 3.418,2.971 4.14,3.136 4.919,3.044 5.624,2.746 6.339,2.448 7.021,2.052 7.563,1.517 8.106,0.986 8.507,0.328 8.681,-0.364 8.857,-1.056 8.813,-1.776 8.559,-2.4 8.427,-2.71 8.246,-2.997 8.013,-3.23 7.778,-3.464 7.489,-3.634 7.179,-3.742 6.52,-3.944 5.775,-3.925 5.169,-3.543 4.556,-3.165 4.081,-2.508 3.764,-1.779 3.86,-2.57 4.196,-3.381 4.863,-3.959 5.191,-4.25 5.615,-4.444 6.055,-4.535 c 0.448,-0.09 0.883,-0.07 1.333,0.025 0.912,0.21 1.666,0.92 2.008,1.761 0.362,0.843 0.325,1.807 0.011,2.62 C 9.093,0.692 8.522,1.359 7.882,1.877 7.235,2.395 6.519,2.791 5.771,3.099 5.02,3.42 4.164,3.586 3.324,3.438 2.486,3.3 1.702,2.852 1.135,2.222 0.564,1.59 0.196,0.807 0,0" />
          </g>
          <g
             transform="matrix(1.25,0,0,-1.25,469.42086,155.83216)"
             id="g2194"
             style="fill:#a4b0b0;fill-opacity:1">
            <path
               inkscape:connector-curvature="0"
               id="path2196"
               style="fill:#a4b0b0;fill-opacity:1;fill-rule:nonzero;stroke:none"
               d="m 0,0 c -1.561,-0.448 -3.06,-1.062 -4.376,-1.91 -1.316,-0.835 -2.43,-1.96 -2.991,-3.331 -0.288,-0.677 -0.438,-1.421 -0.459,-2.155 -0.027,-0.724 0.129,-1.449 0.405,-2.146 0.559,-1.397 1.549,-2.643 2.67,-3.727 2.276,-2.17 5.091,-3.778 8.012,-5.048 2.933,-1.268 6.021,-2.186 9.158,-2.853 6.286,-1.324 12.77,-1.642 19.196,-1.278 6.432,0.365 12.817,1.442 19.076,2.995 6.288,1.562 12.587,3.089 18.916,4.489 6.331,1.395 12.692,2.673 19.113,3.611 6.417,0.925 12.913,1.5 19.404,1.24 3.243,-0.135 6.479,-0.492 9.657,-1.145 3.178,-0.656 6.289,-1.621 9.271,-2.887 -6.015,2.434 -12.486,3.544 -18.939,3.708 -6.466,0.175 -12.921,-0.509 -19.306,-1.496 -6.39,-0.992 -12.726,-2.321 -19.033,-3.769 -6.306,-1.453 -12.586,-3.032 -18.855,-4.649 -6.297,-1.62 -12.743,-2.699 -19.246,-3.096 -6.497,-0.385 -13.068,-0.085 -19.471,1.244 -3.197,0.671 -6.351,1.598 -9.37,2.891 -3.006,1.301 -5.921,2.94 -8.353,5.242 -1.197,1.157 -2.289,2.494 -2.945,4.113 -0.323,0.805 -0.52,1.694 -0.49,2.593 0.036,0.883 0.23,1.75 0.59,2.558 0.357,0.808 0.899,1.519 1.517,2.118 0.623,0.598 1.344,1.067 2.087,1.453 C -3.257,-0.493 -1.631,-0.072 0,0" />
          </g>
          <g
             transform="matrix(1.25,0,0,-1.25,469.34626,155.84191)"
             id="g2198"
             style="fill:#a4b0b0;fill-opacity:1">
            <path
               inkscape:connector-curvature="0"
               id="path2200"
               style="fill:#a4b0b0;fill-opacity:1;fill-rule:nonzero;stroke:none"
               d="m 0,0 c -1.005,-1.109 -1.916,-2.25 -2.609,-3.476 -0.686,-1.22 -1.135,-2.54 -1.03,-3.843 0.096,-1.304 0.784,-2.523 1.733,-3.525 0.941,-1.014 2.143,-1.816 3.371,-2.604 2.454,-1.553 5.094,-2.811 7.83,-3.81 2.738,-0.998 5.577,-1.726 8.454,-2.255 5.758,-1.073 11.663,-1.339 17.541,-1.15 2.94,0.099 5.882,0.278 8.816,0.569 2.934,0.291 5.862,0.666 8.783,1.094 0.098,0.014 0.189,-0.054 0.204,-0.152 0.013,-0.096 -0.05,-0.185 -0.144,-0.203 -2.904,-0.562 -5.828,-1.036 -8.767,-1.407 -2.939,-0.371 -5.89,-0.672 -8.855,-0.815 -5.924,-0.287 -11.901,-0.119 -17.79,0.879 -2.938,0.513 -5.848,1.247 -8.67,2.255 -2.822,1.003 -5.552,2.3 -8.088,3.917 -0.635,0.405 -1.252,0.817 -1.87,1.272 -0.616,0.46 -1.207,0.967 -1.744,1.54 -0.536,0.573 -1.019,1.218 -1.389,1.942 -0.37,0.721 -0.613,1.528 -0.676,2.353 -0.066,0.825 0.05,1.658 0.313,2.42 0.259,0.765 0.651,1.463 1.115,2.086 0.466,0.623 0.998,1.181 1.581,1.67 C -1.305,-0.76 -0.685,-0.319 0,0" />
          </g>
          <g
             transform="matrix(1.25,0,0,-1.25,485.10196,169.41241)"
             id="g2202"
             style="fill:#a4b0b0;fill-opacity:1">
            <path
               inkscape:connector-curvature="0"
               id="path2204"
               style="fill:#a4b0b0;fill-opacity:1;fill-rule:nonzero;stroke:none"
               d="m 0,0 c 0.978,0.303 2.015,0.351 3.032,0.333 1.022,-0.027 2.04,-0.145 3.045,-0.334 2.013,-0.377 3.97,-1.012 5.863,-1.786 1.902,-0.768 3.706,-1.743 5.546,-2.609 1.837,-0.879 3.691,-1.73 5.577,-2.465 0.944,-0.366 1.896,-0.704 2.854,-0.956 0.954,-0.249 1.927,-0.395 2.845,-0.287 0.858,0.112 1.649,0.614 2.159,1.346 0.516,0.729 0.796,1.642 0.836,2.574 0.014,0.233 0.006,0.471 -0.006,0.702 -0.012,0.222 -0.044,0.447 -0.094,0.669 -0.099,0.443 -0.269,0.875 -0.5,1.267 -0.451,0.791 -1.162,1.424 -2.028,1.674 -0.433,0.13 -0.892,0.165 -1.367,0.111 -0.455,-0.041 -0.916,-0.173 -1.307,-0.42 -0.804,-0.481 -1.305,-1.435 -1.469,-2.438 -0.069,1.015 0.285,2.141 1.161,2.863 0.437,0.354 0.963,0.577 1.513,0.694 0.53,0.108 1.111,0.124 1.67,0.006 1.134,-0.226 2.106,-1.007 2.7,-1.958 0.299,-0.48 0.522,-1.003 0.66,-1.551 0.07,-0.275 0.118,-0.555 0.141,-0.84 0.018,-0.281 0.025,-0.552 0.01,-0.829 -0.052,-1.1 -0.361,-2.23 -1.046,-3.159 -0.67,-0.928 -1.745,-1.619 -2.929,-1.721 -1.119,-0.095 -2.194,0.122 -3.195,0.433 -1.004,0.311 -1.956,0.712 -2.896,1.131 -1.872,0.851 -3.689,1.787 -5.5,2.736 l -2.698,1.446 C 13.679,-2.894 12.763,-2.449 11.833,-2.04 9.972,-1.225 8.044,-0.546 6.054,-0.121 5.059,0.089 4.049,0.238 3.03,0.281 2.017,0.315 0.982,0.285 0,0" />
          </g>
          <g
             transform="matrix(1.25,0,0,-1.25,404.76256,151.79042)"
             id="g2206"
             style="fill:#a4b0b0;fill-opacity:1">
            <path
               inkscape:connector-curvature="0"
               id="path2208"
               style="fill:#a4b0b0;fill-opacity:1;fill-rule:nonzero;stroke:none"
               d="m 0,0 c 2.188,-0.49 4.421,-0.768 6.641,-1.005 1.58,-0.168 3.159,-0.31 4.72,-0.517 1.555,-0.212 3.114,-0.488 4.518,-1.072 0.696,-0.292 1.349,-0.677 1.865,-1.184 0.521,-0.5 0.887,-1.133 0.999,-1.822 0.115,-0.687 -0.016,-1.414 -0.338,-2.054 -0.32,-0.643 -0.831,-1.193 -1.438,-1.58 -0.61,-0.389 -1.333,-0.586 -2.056,-0.547 -0.722,0.032 -1.44,0.33 -2.039,0.761 -0.595,0.431 -0.986,1.117 -0.959,1.875 0.01,0.375 0.109,0.754 0.282,1.099 0.179,0.332 0.399,0.692 0.773,0.842 -0.197,-0.039 -0.369,-0.163 -0.519,-0.297 -0.151,-0.136 -0.278,-0.297 -0.387,-0.469 -0.219,-0.343 -0.372,-0.736 -0.427,-1.152 -0.056,-0.414 -0.008,-0.857 0.162,-1.253 0.169,-0.399 0.443,-0.746 0.764,-1.025 0.639,-0.55 1.433,-0.922 2.296,-1.022 0.862,-0.099 1.748,0.119 2.494,0.551 0.75,0.431 1.363,1.083 1.768,1.85 0.404,0.765 0.595,1.674 0.442,2.556 -0.143,0.883 -0.617,1.689 -1.24,2.282 -0.627,0.598 -1.375,1.015 -2.141,1.324 -1.548,0.603 -3.158,0.812 -4.743,0.984 C 9.849,-0.713 8.263,-0.636 6.684,-0.522 4.465,-0.373 2.239,-0.152 0.069,0.313 0.046,0.208 0.022,0.104 0,0" />
          </g>
          <g
             transform="matrix(1.25,0,0,-1.25,441.88046,170.31217)"
             id="g2210"
             style="fill:#a4b0b0;fill-opacity:1">
            <path
               inkscape:connector-curvature="0"
               id="path2212"
               style="fill:#a4b0b0;fill-opacity:1;fill-rule:nonzero;stroke:none"
               d="m 0,0 c 0.196,0.811 0.225,1.651 0.113,2.467 -0.216,1.64 -0.997,3.145 -2.022,4.389 -1.034,1.25 -2.321,2.253 -3.696,3.068 -1.171,0.687 -2.415,1.243 -3.697,1.677 -0.021,-0.101 -0.042,-0.202 -0.064,-0.304 1.249,-0.432 2.46,-0.977 3.582,-1.67 1.331,-0.828 2.563,-1.83 3.523,-3.054 0.962,-1.216 1.642,-2.659 1.831,-4.177 0.195,-1.502 -0.162,-3.107 -1.144,-4.226 -0.485,-0.553 -1.121,-0.976 -1.844,-1.141 -0.723,-0.165 -1.502,-0.072 -2.208,0.225 -0.713,0.299 -1.395,0.695 -1.937,1.229 -0.543,0.531 -0.944,1.19 -1.119,1.881 -0.176,0.692 -0.131,1.412 0.122,2.036 0.131,0.31 0.313,0.597 0.546,0.83 0.235,0.235 0.524,0.405 0.834,0.512 0.659,0.203 1.405,0.183 2.01,-0.199 C -4.558,3.165 -4.082,2.508 -3.766,1.78 -3.861,2.571 -4.198,3.382 -4.864,3.96 -5.192,4.25 -5.616,4.445 -6.057,4.536 -6.504,4.625 -6.938,4.605 -7.389,4.51 -8.301,4.3 -9.055,3.59 -9.396,2.749 -9.759,1.907 -9.722,0.942 -9.408,0.13 c 0.314,-0.822 0.884,-1.489 1.525,-2.006 0.646,-0.518 1.364,-0.914 2.112,-1.223 0.75,-0.321 1.605,-0.487 2.446,-0.339 0.838,0.138 1.622,0.587 2.189,1.217 C -0.565,-1.59 -0.197,-0.807 0,0" />
          </g>
          <g
             transform="matrix(1.25,0,0,-1.25,441.54846,177.84392)"
             id="g2214"
             style="fill:#a4b0b0;fill-opacity:1">
            <path
               inkscape:connector-curvature="0"
               id="path2216"
               style="fill:#a4b0b0;fill-opacity:1;fill-rule:nonzero;stroke:none"
               d="m 0,0 c 1.562,0.447 3.06,1.061 4.376,1.909 1.317,0.835 2.431,1.96 2.991,3.331 0.289,0.677 0.439,1.421 0.459,2.156 0.027,0.723 -0.128,1.449 -0.405,2.145 -0.558,1.397 -1.548,2.643 -2.67,3.727 -2.276,2.171 -5.091,3.778 -8.011,5.048 -2.934,1.268 -6.022,2.186 -9.159,2.854 -6.286,1.324 -12.77,1.641 -19.195,1.278 -6.433,-0.367 -12.818,-1.443 -19.077,-2.996 -6.288,-1.562 -12.586,-3.089 -18.916,-4.488 -6.33,-1.396 -12.693,-2.674 -19.113,-3.612 -6.417,-0.924 -12.913,-1.5 -19.404,-1.24 -3.242,0.135 -6.48,0.492 -9.658,1.146 -3.177,0.655 -6.289,1.621 -9.27,2.886 6.014,-2.434 12.487,-3.544 18.939,-3.709 6.466,-0.173 12.921,0.511 19.306,1.497 6.39,0.991 12.726,2.321 19.034,3.77 6.306,1.452 12.585,3.032 18.854,4.648 6.296,1.62 12.743,2.699 19.246,3.096 6.497,0.386 13.068,0.085 19.471,-1.244 3.196,-0.671 6.352,-1.598 9.37,-2.89 C 0.174,18.01 3.089,16.372 5.52,14.068 6.718,12.912 7.81,11.575 8.466,9.957 8.789,9.152 8.986,8.262 8.957,7.363 8.92,6.48 8.726,5.613 8.366,4.805 8.01,3.997 7.467,3.286 6.849,2.688 6.227,2.089 5.506,1.621 4.763,1.234 3.258,0.492 1.631,0.071 0,0" />
          </g>
          <g
             transform="matrix(1.25,0,0,-1.25,441.62296,177.83529)"
             id="g2218"
             style="fill:#a4b0b0;fill-opacity:1">
            <path
               inkscape:connector-curvature="0"
               id="path2220"
               style="fill:#a4b0b0;fill-opacity:1;fill-rule:nonzero;stroke:none"
               d="m 0,0 c 1.006,1.109 1.916,2.25 2.609,3.476 0.687,1.221 1.135,2.541 1.03,3.843 -0.096,1.305 -0.784,2.524 -1.733,3.526 -0.942,1.013 -2.143,1.815 -3.371,2.603 -2.454,1.553 -5.094,2.811 -7.83,3.81 -2.738,0.998 -5.577,1.726 -8.454,2.255 -5.757,1.074 -11.663,1.34 -17.54,1.15 -2.941,-0.099 -5.883,-0.278 -8.817,-0.569 -2.934,-0.29 -5.861,-0.666 -8.783,-1.094 -0.098,-0.014 -0.189,0.055 -0.204,0.153 -0.013,0.095 0.051,0.184 0.144,0.202 2.905,0.563 5.829,1.036 8.767,1.407 2.939,0.371 5.891,0.673 8.855,0.816 5.924,0.286 11.901,0.119 17.79,-0.88 2.938,-0.513 5.848,-1.247 8.67,-2.255 2.822,-1.003 5.551,-2.299 8.087,-3.916 0.635,-0.406 1.252,-0.818 1.871,-1.273 0.616,-0.46 1.207,-0.966 1.744,-1.541 C 3.371,11.141 3.854,10.496 4.224,9.772 4.594,9.052 4.837,8.244 4.9,7.419 4.966,6.594 4.851,5.761 4.587,4.999 4.328,4.234 3.937,3.537 3.473,2.913 3.006,2.29 2.474,1.732 1.892,1.243 1.305,0.76 0.685,0.32 0,0" />
          </g>
          <g
             transform="matrix(1.25,0,0,-1.25,425.86736,164.26479)"
             id="g2222"
             style="fill:#a4b0b0;fill-opacity:1">
            <path
               inkscape:connector-curvature="0"
               id="path2224"
               style="fill:#a4b0b0;fill-opacity:1;fill-rule:nonzero;stroke:none"
               d="m 0,0 c -0.978,-0.302 -2.014,-0.351 -3.032,-0.333 -1.022,0.027 -2.04,0.146 -3.045,0.334 -2.013,0.377 -3.97,1.012 -5.863,1.786 -1.902,0.768 -3.706,1.743 -5.546,2.609 -1.837,0.879 -3.691,1.731 -5.578,2.465 -0.943,0.366 -1.895,0.705 -2.853,0.957 -0.954,0.249 -1.927,0.394 -2.845,0.287 -0.858,-0.113 -1.649,-0.615 -2.159,-1.347 -0.516,-0.73 -0.795,-1.643 -0.836,-2.575 -0.014,-0.232 -0.006,-0.47 0.005,-0.701 0.013,-0.222 0.045,-0.447 0.095,-0.669 0.098,-0.443 0.269,-0.875 0.5,-1.267 0.452,-0.79 1.162,-1.423 2.028,-1.674 0.433,-0.129 0.892,-0.165 1.367,-0.111 0.455,0.042 0.916,0.174 1.308,0.42 0.804,0.482 1.305,1.435 1.469,2.438 0.069,-1.015 -0.286,-2.141 -1.162,-2.863 -0.437,-0.354 -0.963,-0.577 -1.513,-0.694 -0.53,-0.108 -1.111,-0.123 -1.67,-0.006 -1.134,0.227 -2.106,1.008 -2.7,1.959 -0.299,0.479 -0.522,1.003 -0.66,1.55 -0.07,0.274 -0.118,0.555 -0.141,0.841 -0.018,0.28 -0.024,0.551 -0.01,0.828 0.052,1.099 0.361,2.23 1.046,3.158 0.67,0.929 1.745,1.62 2.928,1.722 1.12,0.096 2.195,-0.122 3.196,-0.433 1.004,-0.311 1.956,-0.711 2.896,-1.131 1.872,-0.851 3.689,-1.786 5.499,-2.736 l 2.699,-1.446 c 0.898,-0.473 1.813,-0.918 2.744,-1.328 1.86,-0.815 3.788,-1.494 5.779,-1.919 0.995,-0.21 2.006,-0.359 3.024,-0.401 C -2.017,-0.314 -0.982,-0.285 0,0" />
          </g>
          <g
             transform="matrix(1.25,0,0,-1.25,422.67396,148.62267)"
             id="g2226"
             style="fill:#a4b0b0;fill-opacity:1">
            <path
               inkscape:connector-curvature="0"
               id="path2228"
               style="fill:#a4b0b0;fill-opacity:1;fill-rule:nonzero;stroke:none"
               d="m 0,0 c 1.269,-0.022 2.536,-0.142 3.796,-0.315 1.259,-0.171 2.514,-0.395 3.76,-0.668 2.484,-0.568 4.934,-1.346 7.272,-2.41 2.342,-1.051 4.567,-2.407 6.545,-4.087 1.974,-1.68 3.661,-3.73 4.888,-6.037 2.101,-4.546 5.85,-8.042 10.175,-10.53 2.164,-1.247 4.464,-2.275 6.837,-3.112 2.369,-0.859 4.816,-1.509 7.308,-1.967 -1.266,0.088 -2.524,0.276 -3.772,0.521 -1.249,0.241 -2.49,0.535 -3.717,0.88 -2.447,0.715 -4.847,1.644 -7.113,2.857 -2.272,1.197 -4.399,2.704 -6.266,4.506 -0.928,0.907 -1.779,1.896 -2.538,2.954 -0.379,0.528 -0.735,1.075 -1.064,1.637 -0.33,0.555 -0.635,1.169 -0.904,1.698 -1.133,2.181 -2.721,4.11 -4.57,5.748 -1.847,1.646 -3.971,2.982 -6.203,4.1 -2.241,1.106 -4.602,1.99 -7.022,2.684 C 4.996,-0.828 2.515,-0.318 0,0" />
          </g>
        </g>
      </g>
    </g>
  </g>
</svg>
