<?xml version="1.0" encoding="utf-8"?>
<!-- Generator: Adobe Illustrator 16.0.0, SVG Export Plug-In . SVG Version: 6.00 Build 0)  -->
<!DOCTYPE svg PUBLIC "-//W3C//DTD SVG 1.1//EN" "http://www.w3.org/Graphics/SVG/1.1/DTD/svg11.dtd">
<svg version="1.1" id="Layer_1" xmlns="http://www.w3.org/2000/svg" xmlns:xlink="http://www.w3.org/1999/xlink" x="0px" y="0px"
	 width="50px" height="40px" viewBox="0 0 50 40" enable-background="new 0 0 50 40" xml:space="preserve">
<g>
	<g>
		<path fill="#FCFAFB" d="M8.739,19.528c1.472,1.382,2.89,2.827,4.275,4.297c2.215,2.353,4.645,4.891,6.108,7.811
			c0.265,0.527,0.826,0.815,1.213,0.209c1.024-1.607,2.321-3.077,3.499-4.568c1.823-2.311,3.662-4.608,5.502-6.904
			c1.418-1.77,2.876-3.51,4.269-5.298c0.948-1.217,1.855-2.78,1.547-4.392c-0.344-1.8-1.983-2.704-3.68-2.855
			c-3.076-0.273-5.547,2.743-6.869,5.153c0.433,0.163,0.865,0.325,1.297,0.488c-0.51-2.081-2.142-3.461-4.159-3.995
			c-1.808-0.478-4.087-0.312-5.413,1.167c-1.695,1.892-1.236,4.874-0.037,6.879c1.238,2.07,3.348,3.416,5.115,4.975
			c0.946,0.835,1.446-1.422,0.727-2.057c-1.377-1.216-2.923-2.259-4.116-3.674c-0.896-1.063-1.912-2.934-0.774-4.204
			c1.696-1.892,6.554-1.018,7.19,1.573c0.143,0.583,0.857,1.293,1.298,0.489c0.963-1.757,2.263-3.427,4.162-4.191
			c0.795-0.317,1.672-0.321,2.485-0.075c0.399,0.122,1.331,0.571,1.289,0.955c-0.065,0.601-0.514,1.183-0.848,1.66
			c-0.449,0.645-0.971,1.233-1.472,1.834c-0.611,0.737-1.194,1.5-1.793,2.245c-3.286,4.099-6.634,8.158-9.784,12.365
			c-0.193,0.258-0.389,0.517-0.563,0.789c0.404,0.068,0.809,0.138,1.213,0.208c-1.546-3.085-3.966-5.718-6.289-8.223
			c-1.502-1.621-3.055-3.206-4.667-4.718c-0.415-0.39-0.894,0.033-1.041,0.45C8.237,18.448,8.319,19.134,8.739,19.528L8.739,19.528z
			"/>
	</g>
	<g>
		<path fill="#FCFAFB" d="M27.453,28.179c1.192,1.311,2.269,2.816,3.703,3.874c0.323,0.238,0.73,0.164,0.927-0.208
			c1.049-1.977,1.916-4.051,3.113-5.947c1.479-2.342,3.556-4.109,5.978-5.406c0.876-0.467,0.515-2.788-0.465-2.265
			c-2.528,1.353-4.662,3.157-6.305,5.523c-1.394,2.008-2.306,4.302-3.449,6.454c0.31-0.069,0.618-0.14,0.928-0.209
			c-1.435-1.056-2.511-2.563-3.703-3.873c-0.391-0.431-0.906,0.066-1.041,0.449C26.939,27.132,27.059,27.744,27.453,28.179
			L27.453,28.179z"/>
	</g>
</g>
</svg>
