<?xml version="1.0" encoding="UTF-8" standalone="no"?>
<!-- Generator: Adobe Illustrator 16.0.0, SVG Export Plug-In . SVG Version: 6.00 Build 0)  -->

<svg
   xmlns:dc="http://purl.org/dc/elements/1.1/"
   xmlns:cc="http://creativecommons.org/ns#"
   xmlns:rdf="http://www.w3.org/1999/02/22-rdf-syntax-ns#"
   xmlns:svg="http://www.w3.org/2000/svg"
   xmlns="http://www.w3.org/2000/svg"
   xmlns:sodipodi="http://sodipodi.sourceforge.net/DTD/sodipodi-0.dtd"
   xmlns:inkscape="http://www.inkscape.org/namespaces/inkscape"
   version="1.1"
   id="svg4114"
   inkscape:version="0.48.2 r9819"
   sodipodi:docname="section-separator.svg"
   x="0px"
   y="0px"
   width="1116px"
   height="30px"
   viewBox="-460 0 1116 30"
   enable-background="new -460 0 1116 30"
   xml:space="preserve"><metadata
   id="metadata21"><rdf:RDF><cc:Work
       rdf:about=""><dc:format>image/svg+xml</dc:format><dc:type
         rdf:resource="http://purl.org/dc/dcmitype/StillImage" /></cc:Work></rdf:RDF></metadata><defs
   id="defs19" /><sodipodi:namedview
   pagecolor="#ffffff"
   bordercolor="#666666"
   borderopacity="1"
   objecttolerance="10"
   gridtolerance="10"
   guidetolerance="10"
   inkscape:pageopacity="0"
   inkscape:pageshadow="2"
   inkscape:window-width="1312"
   inkscape:window-height="916"
   id="namedview17"
   showgrid="false"
   inkscape:zoom="10.849758"
   inkscape:cx="550.60473"
   inkscape:cy="5.6751943"
   inkscape:window-x="0"
   inkscape:window-y="0"
   inkscape:window-maximized="0"
   inkscape:current-layer="svg4114" />
<g
   opacity="0.5"
   id="g3"
   style="fill:#5d6b6b;fill-opacity:0.78431374">
	<g
   id="g5"
   style="fill:#5d6b6b;fill-opacity:0.78431374">
		<path
   fill="#A4B0B0"
   d="M89.025,14.74c0.812,0.762,1.595,1.56,2.359,2.371c1.222,1.298,2.563,2.699,3.371,4.311    c0.146,0.292,0.456,0.451,0.67,0.116c0.565-0.888,1.281-1.699,1.931-2.522c1.007-1.274,2.022-2.543,3.038-3.811    c0.782-0.976,1.588-1.937,2.356-2.924c0.522-0.672,1.023-1.535,0.854-2.424c-0.189-0.993-1.095-1.492-2.031-1.576    c-1.697-0.151-3.062,1.514-3.792,2.844c0.239,0.09,0.478,0.18,0.717,0.27c-0.282-1.149-1.183-1.911-2.296-2.205    c-0.998-0.264-2.256-0.172-2.987,0.644c-0.936,1.044-0.683,2.69-0.021,3.796c0.684,1.143,1.848,1.885,2.823,2.745    c0.521,0.461,0.798-0.784,0.4-1.135c-0.76-0.671-1.613-1.246-2.271-2.027c-0.494-0.586-1.055-1.62-0.427-2.32    c0.936-1.044,3.617-0.562,3.968,0.868c0.079,0.321,0.474,0.714,0.717,0.27c0.532-0.969,1.25-1.891,2.297-2.312    c0.438-0.176,0.923-0.177,1.371-0.042c0.221,0.066,0.734,0.315,0.712,0.527c-0.036,0.332-0.284,0.653-0.468,0.917    c-0.248,0.355-0.537,0.68-0.812,1.012c-0.337,0.407-0.659,0.828-0.99,1.239c-1.813,2.262-3.662,4.503-5.4,6.824    c-0.107,0.143-0.215,0.285-0.311,0.436c0.223,0.038,0.446,0.076,0.669,0.114c-0.854-1.702-2.188-3.155-3.471-4.538    c-0.829-0.895-1.687-1.769-2.576-2.604c-0.229-0.215-0.493,0.018-0.574,0.248C88.748,14.144,88.793,14.522,89.025,14.74    L89.025,14.74z"
   id="path7"
   style="fill:#5d6b6b;fill-opacity:0.78431374" />
	</g>
	<g
   id="g9"
   style="fill:#5d6b6b;fill-opacity:0.78431374">
		<path
   fill="#A4B0B0"
   d="M99.354,19.514c0.657,0.723,1.251,1.555,2.043,2.139c0.179,0.132,0.403,0.09,0.512-0.114    c0.579-1.092,1.058-2.236,1.719-3.283c0.815-1.292,1.962-2.269,3.299-2.983c0.483-0.258,0.284-1.539-0.256-1.25    c-1.396,0.746-2.573,1.742-3.48,3.048c-0.77,1.108-1.273,2.374-1.904,3.562c0.171-0.038,0.342-0.077,0.513-0.115    c-0.792-0.583-1.386-1.415-2.044-2.138c-0.216-0.237-0.5,0.036-0.575,0.248C99.07,18.937,99.136,19.274,99.354,19.514    L99.354,19.514z"
   id="path11"
   style="fill:#5d6b6b;fill-opacity:0.78431374" />
	</g>
</g>
<line
   opacity="0.5"
   fill="none"
   stroke="#A4B0B0"
   stroke-width="0.5"
   stroke-miterlimit="10"
   x1="-460"
   y1="15"
   x2="77.862"
   y2="15"
   id="line13"
   style="fill:none;fill-opacity:0.49804130000000002;stroke-width:1;stroke-miterlimit:10;stroke-dasharray:none;stroke:#5d6b6b;stroke-opacity:0.78431373999999998" />
<line
   opacity="0.5"
   fill="none"
   stroke="#A4B0B0"
   stroke-width="0.5"
   stroke-miterlimit="10"
   x1="118.138"
   y1="15"
   x2="656"
   y2="15"
   id="line15"
   style="fill:none;fill-opacity:0.78431373999999998;stroke-width:1;stroke-miterlimit:10;stroke-dasharray:none;stroke:#5d6b6b;stroke-opacity:0.78431373999999998" />
</svg>