<?xml version="1.0" encoding="utf-8"?>
<!-- Generator: Adobe Illustrator 16.0.0, SVG Export Plug-In . SVG Version: 6.00 Build 0)  -->
<!DOCTYPE svg PUBLIC "-//W3C//DTD SVG 1.1//EN" "http://www.w3.org/Graphics/SVG/1.1/DTD/svg11.dtd">
<svg version="1.1"
	 id="svg4114" xmlns:rdf="http://www.w3.org/1999/02/22-rdf-syntax-ns#" xmlns:inkscape="http://www.inkscape.org/namespaces/inkscape" xmlns:cc="http://creativecommons.org/ns#" xmlns:sodipodi="http://sodipodi.sourceforge.net/DTD/sodipodi-0.dtd" xmlns:dc="http://purl.org/dc/elements/1.1/" xmlns:svg="http://www.w3.org/2000/svg" sodipodi:docname="logo-menu.svg" inkscape:version="0.48.2 r9819"
	 xmlns="http://www.w3.org/2000/svg" xmlns:xlink="http://www.w3.org/1999/xlink" x="0px" y="0px" width="196px" height="30px"
	 viewBox="485 12.5 196 30" enable-background="new 485 12.5 196 30" xml:space="preserve">
<sodipodi:namedview  id="base" bordercolor="#666666" pagecolor="#ffffff" inkscape:zoom="5.6568542" inkscape:cy="28.501632" showgrid="false" inkscape:cx="710.69666" borderopacity="1.0" inkscape:window-maximized="1" inkscape:current-layer="g4573" inkscape:document-units="px" inkscape:pageopacity="0.0" inkscape:window-x="0" inkscape:window-width="1920" inkscape:pageshadow="2" inkscape:window-height="1102" inkscape:window-y="0">
	</sodipodi:namedview>
<g id="layer1" transform="translate(0,-997.36218)" inkscape:label="Layer 1" inkscape:groupmode="layer">
	<g id="g4664" transform="translate(-332.00922,487.14347)">
		<g id="g4573" transform="translate(566.83756,336.15492)">
			<g id="g4642" transform="translate(-107.313,34.725393)">
				<g id="g2186" transform="matrix(1.25,0,0,-1.25,506.20666,181.88679)">
					<path id="path2188" inkscape:connector-curvature="0" fill="#A4B0B0" d="M-19.158,5.38c-1.241,0.278-2.509,0.436-3.767,0.571
						c-0.898,0.095-1.793,0.176-2.678,0.292c-0.882,0.122-1.767,0.277-2.563,0.609c-0.394,0.166-0.765,0.384-1.058,0.672
						c-0.296,0.284-0.502,0.642-0.566,1.034c-0.066,0.389,0.008,0.801,0.191,1.164c0.181,0.365,0.472,0.678,0.816,0.897
						c0.346,0.22,0.756,0.332,1.166,0.31c0.409-0.02,0.816-0.187,1.157-0.432c0.338-0.244,0.559-0.634,0.544-1.062
						c-0.005-0.214-0.062-0.428-0.16-0.624c-0.101-0.189-0.227-0.393-0.438-0.477c0.112,0.022,0.209,0.091,0.295,0.168
						c0.085,0.077,0.159,0.169,0.22,0.266c0.124,0.195,0.212,0.417,0.241,0.653c0.032,0.235,0.005,0.486-0.091,0.713
						c-0.095,0.226-0.252,0.423-0.433,0.58c-0.363,0.312-0.813,0.523-1.302,0.579c-0.489,0.058-0.992-0.066-1.415-0.312
						c-0.426-0.244-0.773-0.614-1.003-1.049c-0.23-0.434-0.338-0.95-0.251-1.45c0.08-0.501,0.35-0.958,0.703-1.295
						c0.356-0.34,0.78-0.576,1.215-0.752c0.878-0.342,1.792-0.461,2.69-0.558c0.902-0.092,1.802-0.136,2.697-0.2
						c1.259-0.086,2.522-0.211,3.753-0.474C-19.185,5.262-19.171,5.322-19.158,5.38"/>
				</g>
				<g id="g2190" transform="matrix(1.25,0,0,-1.25,469.08996,163.36517)">
					<path id="path2192" inkscape:connector-curvature="0" fill="#A4B0B0" d="M-6.309-1.031c-0.111-0.46-0.13-0.936-0.066-1.399
						c0.123-0.93,0.566-1.785,1.147-2.489c0.587-0.709,1.317-1.278,2.098-1.741c0.664-0.39,1.37-0.705,2.097-0.952
						c0.013,0.059,0.024,0.116,0.037,0.173c-0.709,0.245-1.396,0.554-2.032,0.947c-0.755,0.47-1.454,1.038-2,1.733
						c-0.545,0.689-0.93,1.508-1.038,2.37c-0.109,0.852,0.092,1.763,0.649,2.397C-5.142,0.32-4.78,0.561-4.37,0.654
						c0.409,0.094,0.852,0.042,1.251-0.127c0.406-0.169,0.793-0.394,1.1-0.697c0.309-0.301,0.536-0.675,0.634-1.067
						c0.101-0.393,0.074-0.801-0.07-1.155C-1.53-2.568-1.631-2.731-1.764-2.863c-0.133-0.133-0.297-0.229-0.473-0.291
						c-0.373-0.114-0.796-0.104-1.141,0.113c-0.347,0.214-0.616,0.587-0.796,1C-4.12-2.489-3.93-2.949-3.551-3.277
						c0.186-0.166,0.426-0.275,0.676-0.327c0.255-0.051,0.501-0.04,0.755,0.015c0.518,0.119,0.946,0.522,1.14,0.999
						c0.205,0.478,0.185,1.025,0.006,1.486C-1.151-0.638-1.476-0.26-1.838,0.034c-0.366,0.293-0.773,0.518-1.198,0.693
						c-0.427,0.182-0.912,0.276-1.388,0.192c-0.476-0.078-0.92-0.332-1.242-0.689C-5.99-0.129-6.198-0.574-6.309-1.031"/>
				</g>
				<g id="g2194" transform="matrix(1.25,0,0,-1.25,469.42086,155.83216)">
					<path id="path2196" inkscape:connector-curvature="0" fill="#A4B0B0" d="M-6.424-3.639C-7.31-3.893-8.16-4.241-8.907-4.722
						c-0.746-0.473-1.378-1.112-1.697-1.889c-0.164-0.384-0.248-0.806-0.26-1.223c-0.016-0.411,0.073-0.822,0.23-1.218
						c0.316-0.792,0.879-1.498,1.514-2.114c1.291-1.23,2.889-2.143,4.546-2.864c1.663-0.718,3.415-1.239,5.195-1.617
						c3.566-0.752,7.245-0.932,10.89-0.726c3.649,0.207,7.271,0.818,10.822,1.699c3.567,0.886,7.14,1.752,10.73,2.547
						c3.591,0.791,7.2,1.516,10.843,2.048c3.641,0.525,7.326,0.852,11.008,0.705c1.839-0.077,3.675-0.28,5.478-0.65
						c1.802-0.373,3.567-0.919,5.259-1.638c-3.412,1.38-7.083,2.011-10.744,2.103c-3.669,0.1-7.33-0.287-10.952-0.848
						c-3.624-0.563-7.22-1.316-10.797-2.139c-3.577-0.823-7.141-1.72-10.696-2.638c-3.572-0.919-7.229-1.531-10.919-1.756
						c-3.685-0.217-7.413-0.047-11.045,0.706c-1.814,0.381-3.603,0.906-5.315,1.641c-1.706,0.737-3.359,1.667-4.739,2.973
						c-0.679,0.656-1.299,1.414-1.671,2.333c-0.183,0.457-0.295,0.962-0.278,1.471c0.021,0.501,0.13,0.993,0.335,1.451
						c0.202,0.459,0.51,0.862,0.86,1.202c0.354,0.339,0.763,0.605,1.184,0.824C-8.272-3.918-7.35-3.68-6.424-3.639"/>
				</g>
				<g id="g2198" transform="matrix(1.25,0,0,-1.25,469.34626,155.84191)">
					<path id="path2200" inkscape:connector-curvature="0" fill="#A4B0B0" d="M-6.399-3.635c-0.57-0.629-1.087-1.277-1.48-1.972
						C-8.267-6.3-8.523-7.048-8.463-7.787c0.055-0.74,0.445-1.432,0.983-2c0.534-0.575,1.216-1.03,1.913-1.477
						c1.392-0.881,2.889-1.595,4.442-2.161c1.553-0.567,3.163-0.98,4.796-1.28c3.266-0.609,6.616-0.759,9.951-0.652
						c1.668,0.056,3.336,0.158,5.001,0.323c1.665,0.165,3.325,0.377,4.982,0.62c0.056,0.008,0.108-0.03,0.116-0.086
						c0.008-0.055-0.029-0.105-0.082-0.115c-1.647-0.32-3.306-0.588-4.973-0.798c-1.667-0.211-3.341-0.381-5.023-0.463
						c-3.36-0.163-6.752-0.068-10.091,0.499c-1.667,0.291-3.318,0.707-4.92,1.279c-1.6,0.569-3.148,1.305-4.587,2.222
						c-0.359,0.23-0.71,0.463-1.061,0.722c-0.349,0.261-0.684,0.548-0.989,0.873S-8.585-9.59-8.795-9.18
						c-0.21,0.41-0.348,0.868-0.384,1.336C-9.216-7.376-9.15-6.903-9-6.471c0.147,0.434,0.369,0.83,0.632,1.184
						c0.265,0.354,0.566,0.67,0.898,0.948C-7.139-4.067-6.786-3.816-6.399-3.635"/>
				</g>
				<g id="g2202" transform="matrix(1.25,0,0,-1.25,485.10196,169.41241)">
					<path id="path2204" inkscape:connector-curvature="0" fill="#A4B0B0" d="M-11.853,1.062c0.554,0.171,1.143,0.199,1.72,0.188
						c0.58-0.015,1.158-0.082,1.728-0.189c1.141-0.214,2.252-0.573,3.326-1.013C-4-0.387-2.977-0.94-1.933-1.431
						c1.042-0.499,2.094-0.981,3.163-1.399c0.536-0.207,1.077-0.398,1.62-0.541c0.541-0.141,1.093-0.225,1.615-0.163
						c0.486,0.063,0.934,0.348,1.224,0.764C5.982-2.358,6.14-1.84,6.162-1.311C6.171-1.18,6.166-1.044,6.159-0.913
						c-0.006,0.127-0.025,0.255-0.053,0.38c-0.057,0.252-0.152,0.497-0.284,0.72C5.567,0.634,5.163,0.994,4.672,1.135
						C4.426,1.208,4.165,1.228,3.897,1.197C3.638,1.175,3.377,1.1,3.155,0.959C2.699,0.687,2.415,0.146,2.322-0.424
						C2.283,0.152,2.483,0.791,2.98,1.2c0.248,0.202,0.546,0.328,0.859,0.395c0.3,0.061,0.63,0.07,0.947,0.003
						C5.43,1.469,5.98,1.027,6.317,0.487c0.17-0.272,0.297-0.569,0.375-0.88c0.04-0.155,0.067-0.315,0.08-0.477
						c0.011-0.159,0.015-0.313,0.006-0.47c-0.03-0.624-0.205-1.266-0.594-1.793C5.805-3.658,5.195-4.05,4.522-4.108
						C3.888-4.162,3.278-4.039,2.711-3.863C2.14-3.686,1.601-3.459,1.067-3.221c-1.062,0.483-2.092,1.013-3.12,1.552l-1.53,0.82
						c-0.509,0.27-1.029,0.522-1.556,0.753c-1.057,0.462-2.15,0.848-3.279,1.09c-0.565,0.118-1.138,0.202-1.716,0.227
						C-10.709,1.241-11.295,1.224-11.853,1.062"/>
				</g>
				<g id="g2206" transform="matrix(1.25,0,0,-1.25,404.76256,151.79042)">
					<path id="path2208" inkscape:connector-curvature="0" fill="#A4B0B0" d="M15.958-5.038c1.241-0.278,2.508-0.436,3.767-0.57
						c0.896-0.095,1.792-0.176,2.678-0.294c0.882-0.12,1.767-0.277,2.563-0.608c0.395-0.166,0.765-0.384,1.058-0.672
						c0.295-0.284,0.503-0.643,0.567-1.034c0.065-0.39-0.009-0.802-0.192-1.165c-0.181-0.365-0.471-0.677-0.816-0.896
						c-0.346-0.22-0.756-0.332-1.166-0.31c-0.41,0.018-0.817,0.187-1.157,0.432c-0.337,0.244-0.559,0.634-0.544,1.064
						c0.005,0.212,0.062,0.428,0.16,0.623c0.102,0.188,0.226,0.393,0.439,0.478c-0.112-0.022-0.21-0.093-0.295-0.168
						c-0.086-0.077-0.157-0.168-0.22-0.266c-0.124-0.195-0.211-0.418-0.243-0.654c-0.032-0.235-0.004-0.486,0.092-0.711
						c0.096-0.226,0.252-0.423,0.433-0.582c0.363-0.312,0.813-0.523,1.303-0.58c0.489-0.056,0.992,0.068,1.414,0.312
						c0.426,0.245,0.774,0.614,1.003,1.05c0.229,0.434,0.338,0.95,0.251,1.45c-0.081,0.501-0.35,0.958-0.703,1.295
						c-0.356,0.339-0.78,0.576-1.215,0.751c-0.878,0.342-1.791,0.461-2.691,0.558c-0.901,0.092-1.8,0.136-2.696,0.2
						c-1.259,0.085-2.522,0.21-3.753,0.474C15.985-4.92,15.971-4.979,15.958-5.038"/>
				</g>
				<g id="g2210" transform="matrix(1.25,0,0,-1.25,441.88046,170.31217)">
					<path id="path2212" inkscape:connector-curvature="0" fill="#A4B0B0" d="M3.109,1.374c0.111,0.46,0.128,0.937,0.064,1.4
						c-0.122,0.93-0.566,1.784-1.147,2.49C1.44,5.972,0.71,6.541-0.07,7.004c-0.664,0.389-1.37,0.705-2.097,0.951
						C-2.18,7.898-2.192,7.84-2.204,7.783c0.709-0.245,1.395-0.554,2.032-0.947c0.755-0.47,1.454-1.038,1.998-1.732
						c0.546-0.69,0.932-1.509,1.039-2.37c0.11-0.853-0.092-1.763-0.649-2.398C1.941,0.022,1.58-0.219,1.17-0.312
						C0.76-0.405,0.318-0.352-0.082-0.184c-0.405,0.17-0.791,0.395-1.098,0.698C-1.489,0.814-1.717,1.188-1.816,1.58
						c-0.1,0.393-0.074,0.801,0.069,1.155c0.075,0.176,0.178,0.339,0.31,0.471c0.133,0.133,0.297,0.23,0.473,0.291
						C-0.59,3.612-0.167,3.6,0.177,3.384c0.347-0.214,0.617-0.587,0.796-1.001C0.919,2.833,0.728,3.293,0.35,3.62
						C0.164,3.785-0.076,3.895-0.327,3.947c-0.254,0.051-0.5,0.039-0.755-0.015C-1.6,3.813-2.028,3.411-2.221,2.933
						c-0.206-0.477-0.185-1.025-0.007-1.485c0.178-0.466,0.502-0.845,0.865-1.138c0.367-0.295,0.774-0.518,1.198-0.695
						C0.261-0.567,0.746-0.66,1.223-0.577c0.475,0.079,0.921,0.334,1.242,0.691C2.788,0.472,2.997,0.916,3.109,1.374"/>
				</g>
				<g id="g2214" transform="matrix(1.25,0,0,-1.25,441.54846,177.84392)">
					<path id="path2216" inkscape:connector-curvature="0" fill="#A4B0B0" d="M3.224,3.981C4.11,4.234,4.96,4.583,5.707,5.064
						c0.746,0.473,1.379,1.111,1.696,1.89c0.164,0.384,0.249,0.805,0.261,1.223c0.016,0.41-0.073,0.822-0.23,1.218
						c-0.316,0.792-0.878,1.499-1.514,2.114c-1.291,1.232-2.889,2.143-4.545,2.864c-1.665,0.719-3.417,1.24-5.196,1.619
						c-3.566,0.751-7.245,0.93-10.89,0.725c-3.649-0.208-7.271-0.819-10.822-1.7c-3.567-0.886-7.14-1.752-10.731-2.546
						c-3.591-0.792-7.2-1.517-10.842-2.049c-3.64-0.524-7.325-0.851-11.007-0.703c-1.839,0.077-3.677,0.279-5.48,0.65
						c-1.802,0.371-3.567,0.92-5.258,1.637c3.412-1.381,7.084-2.011,10.744-2.104c3.668-0.098,7.33,0.29,10.952,0.85
						c3.625,0.562,7.219,1.316,10.798,2.139c3.577,0.823,7.14,1.72,10.695,2.637c3.572,0.919,7.229,1.531,10.918,1.756
						c3.686,0.219,7.414,0.048,11.046-0.706c1.813-0.381,3.604-0.906,5.316-1.639c1.705-0.739,3.359-1.668,4.738-2.975
						c0.679-0.656,1.299-1.414,1.671-2.332C8.21,9.173,8.322,8.668,8.305,8.158C8.284,7.658,8.175,7.165,7.97,6.708
						C7.768,6.248,7.46,5.845,7.11,5.506C6.757,5.166,6.348,4.9,5.926,4.68C5.073,4.26,4.149,4.022,3.224,3.981"/>
				</g>
				<g id="g2218" transform="matrix(1.25,0,0,-1.25,441.62296,177.83529)">
					<path id="path2220" inkscape:connector-curvature="0" fill="#A4B0B0" d="M3.199,3.978c0.57,0.629,1.087,1.276,1.48,1.971
						C5.068,6.643,5.323,7.391,5.263,8.13c-0.055,0.74-0.445,1.432-0.984,2c-0.534,0.575-1.216,1.03-1.913,1.477
						c-1.392,0.881-2.889,1.595-4.442,2.162c-1.554,0.566-3.164,0.979-4.796,1.279c-3.266,0.609-6.616,0.76-9.95,0.653
						c-1.668-0.056-3.337-0.158-5.002-0.323c-1.664-0.164-3.325-0.378-4.982-0.621c-0.056-0.007-0.107,0.031-0.116,0.087
						c-0.007,0.054,0.029,0.104,0.082,0.114c1.648,0.32,3.306,0.588,4.973,0.798c1.667,0.211,3.341,0.382,5.023,0.463
						c3.361,0.162,6.751,0.068,10.092-0.499c1.667-0.291,3.318-0.707,4.919-1.279c1.601-0.57,3.149-1.304,4.587-2.221
						c0.361-0.23,0.711-0.464,1.061-0.723c0.35-0.261,0.685-0.548,0.989-0.874c0.304-0.325,0.578-0.691,0.788-1.101
						c0.21-0.409,0.348-0.867,0.384-1.334c0.038-0.469-0.028-0.941-0.178-1.373C5.653,6.38,5.432,5.984,5.169,5.63
						C4.903,5.277,4.602,4.96,4.272,4.683C3.939,4.408,3.587,4.159,3.199,3.978"/>
				</g>
				<g id="g2222" transform="matrix(1.25,0,0,-1.25,425.86736,164.26479)">
					<path id="path2224" inkscape:connector-curvature="0" fill="#A4B0B0" d="M8.652-0.719C8.098-0.891,7.51-0.919,6.932-0.909
						c-0.579,0.016-1.157,0.083-1.728,0.19C4.063-0.505,2.953-0.145,1.879,0.294C0.8,0.73-0.223,1.283-1.267,1.774
						c-1.042,0.498-2.094,0.982-3.164,1.398c-0.535,0.208-1.075,0.4-1.619,0.543c-0.541,0.141-1.093,0.223-1.614,0.163
						c-0.487-0.064-0.936-0.349-1.225-0.764C-9.181,2.7-9.34,2.182-9.363,1.654c-0.008-0.132-0.003-0.267,0.003-0.398
						c0.008-0.126,0.026-0.254,0.054-0.379c0.055-0.252,0.152-0.496,0.284-0.719c0.257-0.448,0.659-0.807,1.151-0.95
						c0.245-0.073,0.506-0.093,0.775-0.062c0.258,0.023,0.52,0.098,0.742,0.238c0.456,0.274,0.741,0.814,0.834,1.383
						C-5.482,0.19-5.684-0.449-6.18-0.858c-0.248-0.201-0.546-0.327-0.859-0.394c-0.3-0.061-0.63-0.07-0.947-0.003
						C-8.63-1.126-9.181-0.683-9.518-0.144c-0.17,0.272-0.296,0.57-0.374,0.88c-0.04,0.155-0.067,0.315-0.08,0.477
						c-0.01,0.159-0.013,0.312-0.006,0.47c0.03,0.623,0.205,1.265,0.594,1.791c0.38,0.527,0.99,0.919,1.661,0.977
						c0.636,0.055,1.245-0.069,1.813-0.246c0.57-0.176,1.11-0.403,1.643-0.641c1.062-0.483,2.093-1.013,3.12-1.552l1.531-0.82
						C0.893,0.923,1.412,0.67,1.94,0.438C2.995-0.025,4.089-0.41,5.218-0.651c0.564-0.12,1.138-0.204,1.715-0.228
						C7.508-0.898,8.095-0.881,8.652-0.719"/>
				</g>
				<g id="g2226" transform="matrix(1.25,0,0,-1.25,422.67396,148.62267)">
					<path id="path2228" inkscape:connector-curvature="0" fill="#A4B0B0" d="M9.758-6.134c0.72-0.012,1.439-0.081,2.154-0.179
						c0.714-0.097,1.426-0.224,2.133-0.379c1.409-0.322,2.799-0.763,4.125-1.367c1.329-0.596,2.591-1.365,3.713-2.319
						c1.12-0.953,2.077-2.116,2.773-3.425c1.192-2.579,3.319-4.562,5.772-5.973c1.228-0.709,2.533-1.291,3.879-1.766
						c1.345-0.488,2.732-0.856,4.146-1.116c-0.719,0.05-1.432,0.157-2.141,0.295c-0.708,0.138-1.413,0.304-2.109,0.499
						c-1.387,0.406-2.749,0.933-4.034,1.621c-1.289,0.679-2.496,1.534-3.555,2.556c-0.525,0.515-1.009,1.076-1.44,1.675
						c-0.214,0.3-0.416,0.61-0.603,0.93c-0.187,0.315-0.36,0.663-0.512,0.963c-0.643,1.237-1.544,2.332-2.593,3.261
						c-1.048,0.934-2.253,1.692-3.519,2.326c-1.271,0.627-2.611,1.129-3.984,1.523C12.592-6.604,11.184-6.315,9.758-6.134"/>
				</g>
			</g>
		</g>
	</g>
</g>
</svg>
