<?xml version="1.0" encoding="utf-8"?>
<!-- Generator: Adobe Illustrator 16.0.0, SVG Export Plug-In . SVG Version: 6.00 Build 0)  -->
<!DOCTYPE svg PUBLIC "-//W3C//DTD SVG 1.1//EN" "http://www.w3.org/Graphics/SVG/1.1/DTD/svg11.dtd" [
	<!ENTITY ns_flows "http://ns.adobe.com/Flows/1.0/">
	<!ENTITY ns_extend "http://ns.adobe.com/Extensibility/1.0/">
	<!ENTITY ns_ai "http://ns.adobe.com/AdobeIllustrator/10.0/">
	<!ENTITY ns_graphs "http://ns.adobe.com/Graphs/1.0/">
]>
<svg version="1.1" id="Layer_1" xmlns:x="&ns_extend;" xmlns:i="&ns_ai;" xmlns:graph="&ns_graphs;"
	 xmlns="http://www.w3.org/2000/svg" xmlns:xlink="http://www.w3.org/1999/xlink" xmlns:a="http://ns.adobe.com/AdobeSVGViewerExtensions/3.0/"
	 x="0px" y="0px" width="130px" height="60px" viewBox="0 0 130 60" enable-background="new 0 0 130 60" xml:space="preserve">
<g>
	<g>
		<path fill="#333333" d="M6.893,46.004h2.061l1.049,4.53c0.095,0.415,0.174,0.83,0.239,1.244c0.065,0.415,0.14,0.835,0.223,1.262
			h0.07c0.083-0.427,0.169-0.847,0.258-1.262c0.089-0.414,0.187-0.829,0.293-1.244l1.138-4.53h1.865l1.155,4.53
			c0.106,0.415,0.207,0.83,0.302,1.244c0.095,0.415,0.189,0.835,0.284,1.262H15.9c0.082-0.427,0.159-0.847,0.23-1.262
			c0.071-0.414,0.148-0.829,0.231-1.244l1.048-4.53h1.919l-2.221,8.724h-2.435l-1.013-4.068c-0.095-0.415-0.184-0.826-0.267-1.235
			c-0.083-0.408-0.171-0.844-0.266-1.306h-0.071c-0.083,0.462-0.166,0.9-0.249,1.315c-0.083,0.414-0.172,0.829-0.267,1.243
			l-0.995,4.051H9.202L6.893,46.004z"/>
		<path fill="#333333" d="M21.71,50.375c0-0.711,0.112-1.351,0.337-1.919c0.226-0.568,0.524-1.048,0.897-1.439
			c0.373-0.391,0.803-0.692,1.288-0.906c0.485-0.213,0.983-0.319,1.492-0.319c0.593,0,1.113,0.101,1.563,0.302
			c0.45,0.202,0.826,0.486,1.128,0.853c0.303,0.368,0.53,0.806,0.685,1.315c0.153,0.509,0.23,1.065,0.23,1.67
			c0,0.402-0.029,0.723-0.089,0.959h-5.543c0.095,0.794,0.37,1.404,0.826,1.83c0.456,0.427,1.04,0.64,1.75,0.64
			c0.379,0,0.731-0.056,1.058-0.169c0.325-0.112,0.648-0.269,0.968-0.471L28.994,54c-0.415,0.272-0.877,0.497-1.386,0.675
			c-0.51,0.178-1.043,0.267-1.6,0.267c-0.604,0-1.166-0.104-1.688-0.311s-0.978-0.507-1.368-0.897s-0.695-0.867-0.915-1.43
			C21.819,51.741,21.71,51.098,21.71,50.375z M27.555,49.593c0-0.698-0.146-1.243-0.436-1.635c-0.29-0.391-0.737-0.586-1.341-0.586
			c-0.521,0-0.978,0.187-1.368,0.56s-0.634,0.927-0.729,1.661H27.555z"/>
		<path fill="#333333" d="M32.085,50.375c0-0.711,0.104-1.351,0.311-1.919s0.482-1.048,0.826-1.439
			c0.344-0.391,0.737-0.692,1.182-0.906c0.444-0.213,0.903-0.319,1.377-0.319c0.498,0,0.918,0.086,1.262,0.258
			s0.687,0.405,1.03,0.701l-0.071-1.403v-3.162h2.043v12.543h-1.688l-0.142-0.941h-0.071c-0.32,0.319-0.693,0.592-1.119,0.817
			c-0.427,0.225-0.877,0.337-1.351,0.337c-1.102,0-1.976-0.399-2.62-1.199C32.407,52.943,32.085,51.821,32.085,50.375z
			 M34.199,50.358c0,0.947,0.169,1.667,0.507,2.158c0.337,0.491,0.825,0.737,1.465,0.737c0.651,0,1.262-0.325,1.83-0.978v-4.068
			c-0.308-0.272-0.606-0.462-0.896-0.568c-0.291-0.106-0.584-0.16-0.88-0.16c-0.568,0-1.048,0.249-1.439,0.746
			C34.395,48.723,34.199,49.434,34.199,50.358z"/>
		<path fill="#333333" d="M43.438,50.375c0-0.711,0.104-1.351,0.311-1.919s0.482-1.048,0.826-1.439
			c0.344-0.391,0.737-0.692,1.182-0.906c0.444-0.213,0.903-0.319,1.377-0.319c0.498,0,0.918,0.086,1.262,0.258
			s0.687,0.405,1.03,0.701l-0.071-1.403v-3.162h2.043v12.543h-1.688l-0.142-0.941h-0.071c-0.32,0.319-0.693,0.592-1.119,0.817
			c-0.427,0.225-0.877,0.337-1.351,0.337c-1.102,0-1.976-0.399-2.62-1.199C43.76,52.943,43.438,51.821,43.438,50.375z
			 M45.552,50.358c0,0.947,0.169,1.667,0.507,2.158c0.337,0.491,0.825,0.737,1.465,0.737c0.651,0,1.262-0.325,1.83-0.978v-4.068
			c-0.308-0.272-0.606-0.462-0.896-0.568c-0.291-0.106-0.584-0.16-0.88-0.16c-0.568,0-1.048,0.249-1.439,0.746
			C45.747,48.723,45.552,49.434,45.552,50.358z"/>
		<path fill="#333333" d="M56.354,44.477c-0.368,0-0.67-0.106-0.906-0.32c-0.237-0.213-0.355-0.491-0.355-0.835
			s0.118-0.624,0.355-0.844c0.236-0.219,0.538-0.329,0.906-0.329c0.366,0,0.669,0.11,0.905,0.329c0.237,0.22,0.355,0.5,0.355,0.844
			s-0.118,0.622-0.355,0.835C57.023,44.371,56.721,44.477,56.354,44.477z M55.323,46.004h2.044v8.724h-2.044V46.004z"/>
		<path fill="#333333" d="M61.311,46.004h1.688l0.142,1.173h0.071c0.391-0.379,0.814-0.704,1.271-0.978
			c0.456-0.271,0.985-0.408,1.59-0.408c0.936,0,1.617,0.299,2.043,0.897c0.427,0.598,0.64,1.454,0.64,2.567v5.472h-2.043v-5.206
			c0-0.722-0.106-1.231-0.319-1.527c-0.214-0.296-0.563-0.444-1.049-0.444c-0.379,0-0.714,0.092-1.004,0.275
			s-0.619,0.453-0.985,0.809v6.094h-2.044V46.004z"/>
		<path fill="#333333" d="M72.005,56.309c0-0.367,0.107-0.708,0.32-1.021s0.521-0.595,0.924-0.844v-0.071
			c-0.226-0.142-0.412-0.331-0.56-0.568c-0.148-0.237-0.223-0.533-0.223-0.889c0-0.343,0.099-0.654,0.294-0.933
			s0.417-0.506,0.666-0.684v-0.071c-0.296-0.225-0.56-0.536-0.791-0.933c-0.23-0.396-0.346-0.855-0.346-1.377
			c0-0.497,0.094-0.941,0.284-1.333c0.189-0.391,0.44-0.719,0.755-0.985c0.313-0.267,0.678-0.468,1.093-0.604
			c0.414-0.136,0.853-0.204,1.314-0.204c0.237,0,0.465,0.021,0.685,0.062c0.219,0.041,0.417,0.092,0.595,0.15h3.127v1.511h-1.599
			c0.142,0.166,0.26,0.376,0.355,0.631c0.095,0.254,0.142,0.535,0.142,0.844c0,0.485-0.086,0.912-0.258,1.279
			s-0.405,0.675-0.701,0.924c-0.297,0.248-0.646,0.438-1.049,0.568c-0.402,0.13-0.835,0.195-1.297,0.195
			c-0.189,0-0.385-0.018-0.586-0.054c-0.202-0.035-0.403-0.095-0.604-0.178c-0.13,0.119-0.233,0.237-0.311,0.355
			c-0.077,0.119-0.115,0.278-0.115,0.479c0,0.249,0.104,0.444,0.311,0.587c0.207,0.142,0.577,0.213,1.11,0.213h1.546
			c1.054,0,1.851,0.169,2.39,0.507c0.539,0.337,0.809,0.885,0.809,1.643c0,0.427-0.11,0.829-0.329,1.209
			c-0.22,0.379-0.53,0.704-0.933,0.977c-0.403,0.272-0.892,0.489-1.466,0.648c-0.574,0.16-1.217,0.24-1.928,0.24
			c-0.521,0-1.004-0.048-1.447-0.143c-0.445-0.095-0.827-0.236-1.146-0.426c-0.32-0.189-0.572-0.427-0.756-0.711
			S72.005,56.688,72.005,56.309z M73.711,56.007c0,0.391,0.198,0.695,0.596,0.915c0.396,0.219,0.944,0.328,1.644,0.328
			c0.71,0,1.281-0.139,1.714-0.417s0.648-0.607,0.648-0.986c0-0.344-0.133-0.574-0.399-0.692c-0.267-0.119-0.648-0.178-1.146-0.178
			h-1.19c-0.474,0-0.87-0.042-1.189-0.125C73.937,55.196,73.711,55.581,73.711,56.007z M75.736,50.677
			c0.415,0,0.77-0.151,1.066-0.453c0.296-0.302,0.444-0.737,0.444-1.306c0-0.545-0.146-0.969-0.436-1.271s-0.648-0.453-1.075-0.453
			c-0.426,0-0.788,0.148-1.084,0.444s-0.444,0.723-0.444,1.279c0,0.568,0.148,1.004,0.444,1.306S75.311,50.677,75.736,50.677z"/>
		<path fill="#333333" d="M85.206,55.439v2.735h-2.043v-12.17h1.688l0.143,0.924h0.071c0.367-0.308,0.775-0.574,1.226-0.799
			c0.45-0.226,0.918-0.338,1.403-0.338c0.545,0,1.027,0.104,1.448,0.311c0.42,0.208,0.778,0.507,1.075,0.897
			c0.296,0.391,0.521,0.859,0.675,1.403c0.153,0.545,0.231,1.155,0.231,1.83c0,0.746-0.104,1.413-0.312,1.999
			s-0.482,1.078-0.826,1.475s-0.74,0.702-1.19,0.915s-0.918,0.319-1.403,0.319c-0.379,0-0.758-0.083-1.137-0.248
			c-0.38-0.166-0.746-0.403-1.102-0.711L85.206,55.439z M85.206,52.525c0.32,0.272,0.628,0.462,0.924,0.568s0.574,0.16,0.835,0.16
			c0.58,0,1.066-0.252,1.457-0.755c0.391-0.504,0.587-1.253,0.587-2.248c0-0.876-0.148-1.557-0.444-2.043
			c-0.297-0.485-0.776-0.729-1.439-0.729c-0.616,0-1.256,0.326-1.919,0.978V52.525z"/>
		<path fill="#333333" d="M93.947,50.375c0-0.711,0.112-1.351,0.338-1.919c0.225-0.568,0.523-1.048,0.896-1.439
			c0.373-0.391,0.803-0.692,1.288-0.906c0.485-0.213,0.983-0.319,1.493-0.319c0.592,0,1.112,0.101,1.562,0.302
			c0.45,0.202,0.826,0.486,1.129,0.853c0.302,0.368,0.529,0.806,0.684,1.315c0.154,0.509,0.231,1.065,0.231,1.67
			c0,0.402-0.03,0.723-0.089,0.959h-5.543c0.094,0.794,0.369,1.404,0.825,1.83c0.456,0.427,1.04,0.64,1.75,0.64
			c0.38,0,0.731-0.056,1.058-0.169c0.325-0.112,0.648-0.269,0.968-0.471L101.231,54c-0.415,0.272-0.877,0.497-1.386,0.675
			c-0.51,0.178-1.042,0.267-1.599,0.267c-0.604,0-1.167-0.104-1.688-0.311s-0.977-0.507-1.368-0.897
			c-0.391-0.391-0.695-0.867-0.915-1.43C94.057,51.741,93.947,51.098,93.947,50.375z M99.792,49.593
			c0-0.698-0.145-1.243-0.435-1.635c-0.291-0.391-0.737-0.586-1.342-0.586c-0.521,0-0.978,0.187-1.368,0.56
			s-0.634,0.927-0.729,1.661H99.792z"/>
		<path fill="#333333" d="M104.322,50.375c0-0.711,0.104-1.351,0.312-1.919c0.207-0.568,0.482-1.048,0.826-1.439
			c0.343-0.391,0.737-0.692,1.181-0.906c0.444-0.213,0.903-0.319,1.377-0.319c0.498,0,0.918,0.086,1.262,0.258
			s0.687,0.405,1.03,0.701l-0.07-1.403v-3.162h2.043v12.543h-1.688l-0.142-0.941h-0.071c-0.319,0.319-0.692,0.592-1.119,0.817
			c-0.427,0.225-0.877,0.337-1.351,0.337c-1.102,0-1.975-0.399-2.62-1.199C104.646,52.943,104.322,51.821,104.322,50.375z
			 M106.437,50.358c0,0.947,0.169,1.667,0.507,2.158c0.337,0.491,0.826,0.737,1.466,0.737c0.651,0,1.261-0.325,1.83-0.978v-4.068
			c-0.309-0.272-0.607-0.462-0.897-0.568c-0.291-0.106-0.584-0.16-0.88-0.16c-0.568,0-1.048,0.249-1.438,0.746
			C106.632,48.723,106.437,49.434,106.437,50.358z"/>
		<path fill="#333333" d="M117.238,44.477c-0.367,0-0.669-0.106-0.906-0.32c-0.236-0.213-0.354-0.491-0.354-0.835
			s0.118-0.624,0.354-0.844c0.237-0.219,0.539-0.329,0.906-0.329s0.669,0.11,0.906,0.329c0.237,0.22,0.355,0.5,0.355,0.844
			s-0.118,0.622-0.355,0.835C117.907,44.371,117.605,44.477,117.238,44.477z M116.208,46.004h2.043v8.724h-2.043V46.004z"/>
		<path fill="#333333" d="M121.822,52.383c0-0.936,0.408-1.658,1.226-2.168c0.817-0.509,2.12-0.864,3.909-1.066
			c0-0.225-0.03-0.44-0.089-0.648c-0.06-0.207-0.151-0.391-0.275-0.551c-0.125-0.159-0.284-0.284-0.479-0.373
			s-0.441-0.133-0.737-0.133c-0.438,0-0.862,0.083-1.271,0.249c-0.409,0.166-0.803,0.367-1.182,0.604l-0.746-1.368
			c0.485-0.308,1.027-0.574,1.626-0.799c0.598-0.226,1.246-0.338,1.945-0.338c1.102,0,1.919,0.323,2.451,0.968
			c0.533,0.646,0.8,1.579,0.8,2.799v5.17h-1.67l-0.16-0.959h-0.053c-0.392,0.331-0.809,0.609-1.253,0.835
			c-0.444,0.225-0.927,0.337-1.448,0.337c-0.77,0-1.395-0.233-1.874-0.701S121.822,53.153,121.822,52.383z M123.812,52.223
			c0,0.391,0.115,0.675,0.346,0.853c0.231,0.178,0.53,0.267,0.897,0.267c0.355,0,0.681-0.083,0.978-0.249
			c0.296-0.165,0.604-0.402,0.924-0.71v-1.955c-0.593,0.071-1.09,0.166-1.492,0.284c-0.403,0.119-0.726,0.252-0.969,0.4
			s-0.417,0.316-0.524,0.506C123.865,51.808,123.812,52.009,123.812,52.223z"/>
	</g>
	<g id="g3" transform="matrix(0.74751551,0,0,0.74751551,18.9364,16.745569)">
		<g id="g5">
			<path id="path7" inkscape:connector-curvature="0" fill="#333333" d="M34.275,1.485c2.832,2.659,5.56,5.44,8.224,8.269
				c4.262,4.525,8.94,9.409,11.754,15.03c0.511,1.016,1.591,1.57,2.337,0.402c1.97-3.092,4.467-5.922,6.732-8.792
				c3.51-4.445,7.047-8.867,10.588-13.286c2.726-3.403,5.534-6.752,8.213-10.194c1.824-2.342,3.572-5.351,2.979-8.452
				c-0.662-3.461-3.817-5.203-7.082-5.493c-5.918-0.526-10.673,5.278-13.216,9.915c0.833,0.314,1.664,0.626,2.495,0.941
				c-0.982-4.005-4.12-6.661-8.002-7.687c-3.479-0.921-7.865-0.601-10.416,2.245c-3.264,3.64-2.38,9.379-0.074,13.237
				c2.384,3.983,6.444,6.572,9.844,9.571c1.821,1.606,2.781-2.735,1.399-3.958c-2.651-2.339-5.625-4.345-7.919-7.069
				c-1.726-2.045-3.68-5.646-1.49-8.091c3.264-3.639,12.613-1.957,13.835,3.026c0.276,1.122,1.649,2.489,2.498,0.941
				c1.854-3.38,4.354-6.592,8.008-8.061c1.529-0.613,3.219-0.618,4.78-0.147c0.767,0.233,2.562,1.099,2.482,1.839
				c-0.127,1.158-0.99,2.275-1.632,3.194c-0.865,1.238-1.871,2.37-2.832,3.53c-1.176,1.418-2.298,2.885-3.45,4.321
				c-6.32,7.886-12.766,15.699-18.827,23.794c-0.373,0.494-0.749,0.993-1.082,1.517c0.778,0.133,1.555,0.265,2.334,0.402
				c-2.976-5.938-7.632-11.002-12.101-15.823c-2.891-3.12-5.88-6.168-8.982-9.079c-0.798-0.75-1.719,0.063-2.004,0.866
				C33.308-0.594,33.466,0.728,34.275,1.485L34.275,1.485z"/>
		</g>
		<g id="g9">
			<path id="path11" inkscape:connector-curvature="0" fill="#333333" d="M70.285,18.13c2.293,2.519,4.363,5.418,7.125,7.454
				c0.622,0.459,1.404,0.317,1.785-0.397c2.018-3.807,3.685-7.797,5.989-11.445c2.847-4.505,6.84-7.911,11.502-10.403
				c1.687-0.901,0.99-5.365-0.892-4.359c-4.865,2.601-8.97,6.074-12.133,10.628c-2.685,3.863-4.439,8.277-6.638,12.417
				c0.597-0.132,1.19-0.265,1.786-0.398c-2.76-2.035-4.832-4.936-7.125-7.456c-0.753-0.826-1.743,0.128-2.004,0.866
				C69.297,16.115,69.525,17.296,70.285,18.13L70.285,18.13z"/>
		</g>
	</g>
</g>
</svg>
