<?xml version="1.0" encoding="utf-8"?>
<!-- Generator: Adobe Illustrator 16.0.0, SVG Export Plug-In . SVG Version: 6.00 Build 0)  -->
<!DOCTYPE svg PUBLIC "-//W3C//DTD SVG 1.1//EN" "http://www.w3.org/Graphics/SVG/1.1/DTD/svg11.dtd" [
	<!ENTITY ns_flows "http://ns.adobe.com/Flows/1.0/">
	<!ENTITY ns_extend "http://ns.adobe.com/Extensibility/1.0/">
	<!ENTITY ns_ai "http://ns.adobe.com/AdobeIllustrator/10.0/">
	<!ENTITY ns_graphs "http://ns.adobe.com/Graphs/1.0/">
]>
<svg version="1.1" id="Layer_1" xmlns:x="&ns_extend;" xmlns:i="&ns_ai;" xmlns:graph="&ns_graphs;"
	 xmlns="http://www.w3.org/2000/svg" xmlns:xlink="http://www.w3.org/1999/xlink" xmlns:a="http://ns.adobe.com/AdobeSVGViewerExtensions/3.0/"
	 x="0px" y="0px" width="130px" height="60px" viewBox="0 0 130 60" enable-background="new 0 0 130 60" xml:space="preserve">
<g>
	<path fill="#333333" d="M8.24,46.454h1.512l1.296,5.058c0.096,0.42,0.186,0.828,0.27,1.224c0.084,0.396,0.168,0.799,0.252,1.207
		h0.072c0.096-0.408,0.192-0.813,0.288-1.216c0.096-0.401,0.198-0.807,0.306-1.215l1.35-5.058h1.44l1.368,5.058
		c0.108,0.42,0.213,0.828,0.315,1.224c0.102,0.396,0.201,0.799,0.297,1.207h0.072c0.096-0.408,0.186-0.811,0.27-1.207
		c0.084-0.396,0.174-0.804,0.27-1.224l1.278-5.058H20.3l-2.34,8.748h-1.8l-1.26-4.699c-0.108-0.419-0.207-0.833-0.297-1.241
		c-0.09-0.407-0.189-0.834-0.297-1.278h-0.072c-0.096,0.444-0.192,0.873-0.288,1.287c-0.096,0.414-0.205,0.831-0.324,1.251
		l-1.224,4.681H10.67L8.24,46.454z"/>
	<path fill="#333333" d="M22.838,50.845c0-0.72,0.111-1.364,0.333-1.935c0.222-0.57,0.516-1.054,0.882-1.449
		c0.366-0.396,0.783-0.699,1.251-0.909c0.468-0.21,0.954-0.315,1.458-0.315c0.552,0,1.047,0.097,1.485,0.289
		c0.438,0.191,0.804,0.467,1.098,0.827s0.519,0.792,0.675,1.296c0.156,0.504,0.234,1.068,0.234,1.692
		c0,0.323-0.018,0.594-0.054,0.81h-5.904c0.06,0.948,0.351,1.698,0.873,2.25c0.522,0.553,1.203,0.828,2.043,0.828
		c0.42,0,0.807-0.062,1.161-0.189c0.354-0.125,0.693-0.29,1.017-0.494l0.522,0.972c-0.384,0.239-0.81,0.45-1.278,0.63
		c-0.468,0.18-1.002,0.27-1.602,0.27c-0.588,0-1.137-0.105-1.647-0.314c-0.51-0.209-0.954-0.51-1.332-0.9
		c-0.378-0.389-0.675-0.866-0.891-1.431C22.946,52.208,22.838,51.565,22.838,50.845z M28.958,50.179
		c0-0.899-0.189-1.587-0.567-2.062c-0.378-0.474-0.909-0.711-1.593-0.711c-0.312,0-0.609,0.063-0.891,0.189
		c-0.282,0.126-0.537,0.307-0.765,0.54S24.725,48.659,24.575,49s-0.249,0.734-0.297,1.179H28.958z"/>
	<path fill="#333333" d="M33.134,50.845c0-0.708,0.104-1.347,0.315-1.917c0.209-0.57,0.489-1.053,0.837-1.449
		c0.348-0.396,0.75-0.701,1.206-0.918c0.456-0.216,0.936-0.324,1.44-0.324s0.942,0.09,1.314,0.271
		c0.372,0.18,0.75,0.426,1.134,0.737l-0.072-1.494v-3.365h1.494v12.816h-1.224l-0.126-1.026h-0.054
		c-0.348,0.336-0.747,0.626-1.197,0.872c-0.45,0.246-0.933,0.369-1.449,0.369c-1.104,0-1.983-0.396-2.637-1.188
		C33.46,53.437,33.134,52.309,33.134,50.845z M34.664,50.827c0,1.057,0.21,1.879,0.63,2.467s1.014,0.882,1.782,0.882
		c0.408,0,0.792-0.099,1.152-0.298c0.36-0.197,0.72-0.5,1.08-0.908v-4.572c-0.372-0.336-0.729-0.572-1.071-0.711
		c-0.342-0.138-0.693-0.207-1.053-0.207c-0.348,0-0.675,0.081-0.981,0.243s-0.573,0.39-0.801,0.685
		c-0.228,0.293-0.408,0.645-0.54,1.053C34.729,49.868,34.664,50.323,34.664,50.827z"/>
	<path fill="#333333" d="M44.474,50.845c0-0.708,0.104-1.347,0.315-1.917c0.209-0.57,0.489-1.053,0.837-1.449
		c0.348-0.396,0.75-0.701,1.206-0.918c0.456-0.216,0.936-0.324,1.44-0.324s0.942,0.09,1.314,0.271
		c0.372,0.18,0.75,0.426,1.134,0.737l-0.072-1.494v-3.365h1.494v12.816h-1.224l-0.126-1.026h-0.054
		c-0.348,0.336-0.747,0.626-1.197,0.872c-0.45,0.246-0.933,0.369-1.449,0.369c-1.104,0-1.983-0.396-2.637-1.188
		C44.8,53.437,44.474,52.309,44.474,50.845z M46.003,50.827c0,1.057,0.21,1.879,0.63,2.467s1.014,0.882,1.782,0.882
		c0.408,0,0.792-0.099,1.152-0.298c0.36-0.197,0.72-0.5,1.08-0.908v-4.572c-0.372-0.336-0.729-0.572-1.071-0.711
		c-0.342-0.138-0.693-0.207-1.053-0.207c-0.348,0-0.675,0.081-0.981,0.243s-0.573,0.39-0.801,0.685
		c-0.228,0.293-0.408,0.645-0.54,1.053C46.069,49.868,46.003,50.323,46.003,50.827z"/>
	<path fill="#333333" d="M57.199,44.653c-0.288,0-0.531-0.09-0.729-0.27c-0.198-0.18-0.297-0.408-0.297-0.684
		c0-0.289,0.099-0.52,0.297-0.693c0.198-0.174,0.441-0.262,0.729-0.262s0.531,0.088,0.729,0.262
		c0.198,0.174,0.297,0.404,0.297,0.693c0,0.275-0.099,0.504-0.297,0.684C57.73,44.563,57.487,44.653,57.199,44.653z M56.443,46.454
		h1.476v8.748h-1.476V46.454z"/>
	<path fill="#333333" d="M62.221,46.454h1.224l0.126,1.26h0.054c0.42-0.42,0.861-0.771,1.323-1.053
		c0.462-0.282,0.999-0.424,1.611-0.424c0.924,0,1.599,0.289,2.025,0.864c0.426,0.576,0.64,1.429,0.64,2.556v5.545h-1.477v-5.347
		c0-0.827-0.132-1.425-0.396-1.791c-0.264-0.366-0.684-0.549-1.26-0.549c-0.457,0-0.858,0.114-1.206,0.342
		c-0.348,0.229-0.744,0.564-1.188,1.009v6.336h-1.476V46.454z"/>
	<path fill="#333333" d="M72.751,56.875c0-0.373,0.114-0.727,0.342-1.062s0.54-0.643,0.937-0.918v-0.072
		c-0.217-0.131-0.399-0.314-0.549-0.549c-0.15-0.234-0.226-0.524-0.226-0.873c0-0.371,0.103-0.695,0.306-0.972
		c0.204-0.276,0.42-0.491,0.648-0.647v-0.072c-0.288-0.24-0.549-0.561-0.783-0.963s-0.352-0.867-0.352-1.396
		c0-0.479,0.088-0.911,0.262-1.296c0.174-0.384,0.41-0.711,0.711-0.98c0.3-0.271,0.65-0.478,1.053-0.621
		c0.402-0.145,0.825-0.217,1.27-0.217c0.24,0,0.465,0.021,0.675,0.063s0.399,0.093,0.567,0.153h3.041v1.134h-1.799
		c0.203,0.204,0.375,0.462,0.512,0.774c0.139,0.312,0.207,0.653,0.207,1.025c0,0.468-0.084,0.891-0.252,1.27
		c-0.168,0.377-0.395,0.695-0.684,0.953c-0.287,0.258-0.627,0.459-1.016,0.604c-0.391,0.144-0.809,0.216-1.252,0.216
		c-0.217,0-0.438-0.026-0.666-0.081c-0.229-0.055-0.444-0.129-0.648-0.225c-0.156,0.132-0.287,0.279-0.396,0.44
		c-0.107,0.162-0.161,0.363-0.161,0.603c0,0.277,0.108,0.505,0.323,0.685c0.217,0.181,0.625,0.271,1.225,0.271h1.691
		c1.02,0,1.785,0.164,2.295,0.494s0.766,0.861,0.766,1.594c0,0.408-0.102,0.795-0.307,1.16c-0.203,0.367-0.498,0.688-0.881,0.963
		c-0.385,0.277-0.85,0.496-1.395,0.658c-0.547,0.162-1.162,0.242-1.846,0.242c-0.54,0-1.032-0.051-1.477-0.152
		c-0.443-0.102-0.824-0.256-1.143-0.459c-0.318-0.205-0.564-0.451-0.738-0.738C72.838,57.594,72.751,57.258,72.751,56.875z
		 M74.047,56.676c0,0.469,0.225,0.84,0.675,1.117c0.45,0.275,1.071,0.414,1.863,0.414c0.42,0,0.801-0.051,1.144-0.154
		c0.342-0.102,0.633-0.232,0.873-0.395s0.426-0.352,0.557-0.568c0.133-0.215,0.199-0.438,0.199-0.666
		c0-0.408-0.15-0.689-0.451-0.846c-0.299-0.156-0.738-0.234-1.312-0.234h-1.513c-0.169,0-0.351-0.008-0.55-0.025
		c-0.197-0.02-0.393-0.059-0.584-0.117c-0.312,0.227-0.541,0.467-0.685,0.719S74.047,56.424,74.047,56.676z M76.369,51.439
		c0.252,0,0.488-0.048,0.711-0.144c0.222-0.096,0.42-0.234,0.594-0.414s0.309-0.398,0.404-0.657
		c0.098-0.258,0.145-0.549,0.145-0.873c0-0.647-0.18-1.149-0.539-1.503c-0.361-0.354-0.799-0.531-1.314-0.531
		s-0.954,0.178-1.314,0.531c-0.359,0.354-0.539,0.855-0.539,1.503c0,0.324,0.047,0.615,0.143,0.873
		c0.097,0.259,0.231,0.478,0.406,0.657c0.174,0.18,0.371,0.318,0.594,0.414C75.88,51.391,76.117,51.439,76.369,51.439z"/>
	<path fill="#333333" d="M85.314,55.94v2.951h-1.477V46.454h1.225l0.127,1.008h0.053c0.396-0.336,0.832-0.624,1.305-0.864
		c0.475-0.239,0.971-0.36,1.486-0.36c0.564,0,1.062,0.105,1.494,0.315s0.791,0.511,1.08,0.899c0.287,0.391,0.506,0.858,0.656,1.404
		c0.15,0.547,0.225,1.161,0.225,1.846c0,0.744-0.102,1.406-0.305,1.988c-0.205,0.582-0.48,1.078-0.828,1.485
		c-0.35,0.408-0.75,0.718-1.207,0.927c-0.455,0.209-0.936,0.314-1.439,0.314c-0.408,0-0.812-0.09-1.215-0.27
		s-0.807-0.426-1.215-0.738L85.314,55.94z M85.314,53.257c0.396,0.336,0.779,0.573,1.152,0.711c0.371,0.138,0.701,0.207,0.99,0.207
		c0.359,0,0.693-0.081,0.998-0.243c0.307-0.162,0.57-0.39,0.793-0.684c0.221-0.295,0.396-0.657,0.521-1.09
		c0.127-0.432,0.189-0.918,0.189-1.457c0-0.48-0.043-0.918-0.127-1.314s-0.219-0.734-0.404-1.018
		c-0.186-0.281-0.426-0.5-0.721-0.656c-0.293-0.156-0.645-0.234-1.053-0.234c-0.371,0-0.746,0.102-1.125,0.307
		c-0.377,0.203-0.783,0.498-1.215,0.881V53.257z"/>
	<path fill="#333333" d="M94.531,50.845c0-0.72,0.109-1.364,0.332-1.935s0.516-1.054,0.883-1.449
		c0.365-0.396,0.783-0.699,1.25-0.909c0.469-0.21,0.955-0.315,1.459-0.315c0.551,0,1.047,0.097,1.484,0.289
		c0.438,0.191,0.805,0.467,1.098,0.827c0.295,0.36,0.52,0.792,0.676,1.296s0.234,1.068,0.234,1.692c0,0.323-0.02,0.594-0.055,0.81
		h-5.904c0.061,0.948,0.352,1.698,0.873,2.25c0.521,0.553,1.203,0.828,2.043,0.828c0.42,0,0.807-0.062,1.162-0.189
		c0.354-0.125,0.691-0.29,1.016-0.494l0.523,0.972c-0.385,0.239-0.811,0.45-1.279,0.63c-0.467,0.18-1.002,0.27-1.602,0.27
		c-0.588,0-1.137-0.105-1.646-0.314s-0.955-0.51-1.332-0.9c-0.379-0.389-0.676-0.866-0.891-1.431
		C94.639,52.208,94.531,51.565,94.531,50.845z M100.65,50.179c0-0.899-0.189-1.587-0.566-2.062c-0.379-0.474-0.91-0.711-1.594-0.711
		c-0.312,0-0.609,0.063-0.891,0.189s-0.537,0.307-0.766,0.54c-0.227,0.233-0.416,0.522-0.566,0.864s-0.25,0.734-0.297,1.179H100.65z
		"/>
	<path fill="#333333" d="M104.826,50.845c0-0.708,0.105-1.347,0.316-1.917c0.209-0.57,0.488-1.053,0.836-1.449
		s0.75-0.701,1.207-0.918c0.455-0.216,0.936-0.324,1.439-0.324s0.941,0.09,1.314,0.271c0.371,0.18,0.75,0.426,1.133,0.737L111,45.75
		v-3.365h1.494v12.816h-1.223l-0.127-1.026h-0.053c-0.35,0.336-0.748,0.626-1.197,0.872c-0.451,0.246-0.934,0.369-1.449,0.369
		c-1.105,0-1.984-0.396-2.637-1.188C105.154,53.437,104.826,52.309,104.826,50.845z M106.357,50.827
		c0,1.057,0.209,1.879,0.629,2.467s1.014,0.882,1.783,0.882c0.408,0,0.791-0.099,1.152-0.298c0.359-0.197,0.719-0.5,1.078-0.908
		v-4.572c-0.371-0.336-0.729-0.572-1.07-0.711c-0.342-0.138-0.693-0.207-1.053-0.207c-0.348,0-0.676,0.081-0.98,0.243
		c-0.307,0.162-0.574,0.39-0.801,0.685c-0.229,0.293-0.408,0.645-0.541,1.053S106.357,50.323,106.357,50.827z"/>
	<path fill="#333333" d="M117.553,44.653c-0.287,0-0.531-0.09-0.729-0.27c-0.199-0.18-0.297-0.408-0.297-0.684
		c0-0.289,0.098-0.52,0.297-0.693c0.197-0.174,0.441-0.262,0.729-0.262s0.531,0.088,0.729,0.262
		c0.199,0.174,0.297,0.404,0.297,0.693c0,0.275-0.098,0.504-0.297,0.684C118.084,44.563,117.84,44.653,117.553,44.653z
		 M116.797,46.454h1.477v8.748h-1.477V46.454z"/>
	<path fill="#333333" d="M122.143,52.933c0-0.96,0.428-1.694,1.287-2.205c0.857-0.51,2.223-0.866,4.094-1.071
		c0-0.275-0.025-0.545-0.08-0.81c-0.055-0.264-0.15-0.498-0.289-0.702c-0.137-0.203-0.32-0.369-0.549-0.494
		c-0.227-0.127-0.521-0.189-0.881-0.189c-0.516,0-0.994,0.096-1.432,0.287c-0.438,0.193-0.83,0.408-1.18,0.648l-0.594-1.025
		c0.408-0.264,0.906-0.52,1.494-0.766s1.236-0.369,1.945-0.369c1.066,0,1.842,0.328,2.32,0.981c0.48,0.654,0.721,1.526,0.721,2.619
		v5.364h-1.225l-0.125-1.045h-0.037c-0.42,0.349-0.873,0.645-1.357,0.891c-0.486,0.246-1,0.369-1.539,0.369
		c-0.744,0-1.359-0.215-1.846-0.648C122.385,54.337,122.143,53.725,122.143,52.933z M123.6,52.825c0,0.504,0.146,0.864,0.441,1.08
		c0.295,0.217,0.656,0.324,1.09,0.324c0.42,0,0.818-0.099,1.195-0.297c0.379-0.197,0.777-0.488,1.197-0.873v-2.43
		c-0.73,0.096-1.35,0.21-1.854,0.342c-0.504,0.133-0.908,0.288-1.215,0.468c-0.307,0.181-0.525,0.388-0.656,0.621
		C123.666,52.293,123.6,52.549,123.6,52.825z"/>
</g>
<g id="g3" transform="matrix(0.74751551,0,0,0.74751551,18.9364,16.745569)">
	<g id="g5">
		<path id="path7" inkscape:connector-curvature="0" fill="#333333" d="M83.04,1.469c2.869,2.694,5.633,5.512,8.332,8.378
			c4.318,4.584,9.057,9.533,11.908,15.227c0.519,1.029,1.612,1.591,2.367,0.408c1.996-3.133,4.525-5.999,6.821-8.908
			c3.555-4.503,7.14-8.983,10.727-13.46c2.763-3.448,5.607-6.842,8.322-10.327c1.847-2.374,3.619-5.422,3.018-8.564
			c-0.671-3.506-3.867-5.271-7.175-5.565c-5.996-0.533-10.814,5.347-13.391,10.045c0.844,0.319,1.687,0.635,2.529,0.954
			c-0.995-4.058-4.175-6.749-8.108-7.789c-3.525-0.933-7.969-0.609-10.553,2.276c-3.307,3.687-2.412,9.502-0.074,13.409
			c2.416,4.037,6.528,6.659,9.973,9.697c1.845,1.628,2.818-2.771,1.417-4.009c-2.686-2.37-5.699-4.403-8.024-7.162
			c-1.748-2.072-3.729-5.719-1.509-8.196c3.307-3.687,12.778-1.983,14.016,3.065c0.28,1.137,1.671,2.523,2.531,0.954
			c1.877-3.424,4.412-6.678,8.114-8.168c1.549-0.621,3.261-0.624,4.843-0.148c0.777,0.235,2.596,1.113,2.515,1.862
			c-0.128,1.174-1.003,2.306-1.653,3.237c-0.877,1.254-1.896,2.401-2.87,3.577c-1.191,1.436-2.328,2.922-3.495,4.376
			c-6.405,7.99-12.935,15.906-19.076,24.107c-0.378,0.502-0.759,1.006-1.096,1.536c0.788,0.136,1.576,0.269,2.365,0.408
			c-3.015-6.015-7.733-11.146-12.261-16.03c-2.929-3.161-5.957-6.25-9.1-9.198c-0.809-0.759-1.741,0.064-2.03,0.877
			C82.06-0.637,82.22,0.702,83.04,1.469L83.04,1.469z"/>
	</g>
	<g id="g9">
		<path id="path11" inkscape:connector-curvature="0" fill="#333333" d="M119.522,18.332c2.324,2.553,4.422,5.49,7.221,7.552
			c0.63,0.465,1.423,0.321,1.807-0.402c2.046-3.857,3.735-7.899,6.068-11.595c2.883-4.563,6.931-8.015,11.652-10.539
			c1.709-0.913,1.003-5.436-0.904-4.417c-4.928,2.635-9.087,6.153-12.292,10.767c-2.72,3.914-4.497,8.386-6.724,12.58
			c0.605-0.133,1.206-0.269,1.809-0.402c-2.797-2.062-4.896-5.002-7.221-7.554c-0.762-0.837-1.765,0.129-2.03,0.877
			C118.522,16.292,118.753,17.488,119.522,18.332L119.522,18.332z"/>
	</g>
</g>
</svg>
