<?xml version="1.0" encoding="UTF-8" standalone="no"?>
<!-- Created with Inkscape (http://www.inkscape.org/) -->

<svg
   xmlns:dc="http://purl.org/dc/elements/1.1/"
   xmlns:cc="http://creativecommons.org/ns#"
   xmlns:rdf="http://www.w3.org/1999/02/22-rdf-syntax-ns#"
   xmlns:svg="http://www.w3.org/2000/svg"
   xmlns="http://www.w3.org/2000/svg"
   version="1.1"
   width="130"
   height="60"
   viewBox="0 0 130 60"
   id="Layer_1"
   xml:space="preserve"><metadata
   id="metadata41"><rdf:RDF><cc:Work
       rdf:about=""><dc:format>image/svg+xml</dc:format><dc:type
         rdf:resource="http://purl.org/dc/dcmitype/StillImage" /><dc:title></dc:title></cc:Work></rdf:RDF></metadata><defs
   id="defs39" />
<g
   id="g3">
	<path
   d="m 8.24,46.454 h 1.512 l 1.296,5.058 c 0.096,0.42 0.186,0.828 0.27,1.224 0.084,0.396 0.168,0.799 0.252,1.207 h 0.072 c 0.096,-0.408 0.192,-0.813 0.288,-1.216 0.096,-0.401 0.198,-0.807 0.306,-1.215 l 1.35,-5.058 h 1.44 l 1.368,5.058 c 0.108,0.42 0.213,0.828 0.315,1.224 0.102,0.396 0.201,0.799 0.297,1.207 h 0.072 c 0.096,-0.408 0.186,-0.811 0.27,-1.207 0.084,-0.396 0.174,-0.804 0.27,-1.224 l 1.278,-5.058 H 20.3 l -2.34,8.748 h -1.8 L 14.9,50.503 c -0.108,-0.419 -0.207,-0.833 -0.297,-1.241 -0.09,-0.407 -0.189,-0.834 -0.297,-1.278 h -0.072 c -0.096,0.444 -0.192,0.873 -0.288,1.287 -0.096,0.414 -0.205,0.831 -0.324,1.251 l -1.224,4.681 H 10.67 L 8.24,46.454 z"
   id="path5"
   style="fill:#333333" />
	<path
   d="m 22.838,50.845 c 0,-0.72 0.111,-1.364 0.333,-1.935 0.222,-0.57 0.516,-1.054 0.882,-1.449 0.366,-0.396 0.783,-0.699 1.251,-0.909 0.468,-0.21 0.954,-0.315 1.458,-0.315 0.552,0 1.047,0.097 1.485,0.289 0.438,0.191 0.804,0.467 1.098,0.827 0.294,0.36 0.519,0.792 0.675,1.296 0.156,0.504 0.234,1.068 0.234,1.692 0,0.323 -0.018,0.594 -0.054,0.81 h -5.904 c 0.06,0.948 0.351,1.698 0.873,2.25 0.522,0.553 1.203,0.828 2.043,0.828 0.42,0 0.807,-0.062 1.161,-0.189 0.354,-0.125 0.693,-0.29 1.017,-0.494 l 0.522,0.972 c -0.384,0.239 -0.81,0.45 -1.278,0.63 -0.468,0.18 -1.002,0.27 -1.602,0.27 -0.588,0 -1.137,-0.105 -1.647,-0.314 -0.51,-0.209 -0.954,-0.51 -1.332,-0.9 -0.378,-0.389 -0.675,-0.866 -0.891,-1.431 -0.216,-0.565 -0.324,-1.208 -0.324,-1.928 z m 6.12,-0.666 c 0,-0.899 -0.189,-1.587 -0.567,-2.062 -0.378,-0.474 -0.909,-0.711 -1.593,-0.711 -0.312,0 -0.609,0.063 -0.891,0.189 -0.282,0.126 -0.537,0.307 -0.765,0.54 -0.228,0.233 -0.417,0.524 -0.567,0.865 -0.15,0.341 -0.249,0.734 -0.297,1.179 h 4.68 z"
   id="path7"
   style="fill:#333333" />
	<path
   d="m 33.134,50.845 c 0,-0.708 0.104,-1.347 0.315,-1.917 0.209,-0.57 0.489,-1.053 0.837,-1.449 0.348,-0.396 0.75,-0.701 1.206,-0.918 0.456,-0.216 0.936,-0.324 1.44,-0.324 0.504,0 0.942,0.09 1.314,0.271 0.372,0.18 0.75,0.426 1.134,0.737 l -0.072,-1.494 v -3.365 h 1.494 v 12.816 h -1.224 l -0.126,-1.026 h -0.054 c -0.348,0.336 -0.747,0.626 -1.197,0.872 -0.45,0.246 -0.933,0.369 -1.449,0.369 -1.104,0 -1.983,-0.396 -2.637,-1.188 -0.655,-0.792 -0.981,-1.92 -0.981,-3.384 z m 1.53,-0.018 c 0,1.057 0.21,1.879 0.63,2.467 0.42,0.588 1.014,0.882 1.782,0.882 0.408,0 0.792,-0.099 1.152,-0.298 0.36,-0.197 0.72,-0.5 1.08,-0.908 v -4.572 c -0.372,-0.336 -0.729,-0.572 -1.071,-0.711 -0.342,-0.138 -0.693,-0.207 -1.053,-0.207 -0.348,0 -0.675,0.081 -0.981,0.243 -0.306,0.162 -0.573,0.39 -0.801,0.685 -0.228,0.293 -0.408,0.645 -0.54,1.053 -0.133,0.407 -0.198,0.862 -0.198,1.366 z"
   id="path9"
   style="fill:#333333" />
	<path
   d="m 44.474,50.845 c 0,-0.708 0.104,-1.347 0.315,-1.917 0.209,-0.57 0.489,-1.053 0.837,-1.449 0.348,-0.396 0.75,-0.701 1.206,-0.918 0.456,-0.216 0.936,-0.324 1.44,-0.324 0.504,0 0.942,0.09 1.314,0.271 0.372,0.18 0.75,0.426 1.134,0.737 l -0.072,-1.494 v -3.365 h 1.494 v 12.816 h -1.224 l -0.126,-1.026 h -0.054 c -0.348,0.336 -0.747,0.626 -1.197,0.872 -0.45,0.246 -0.933,0.369 -1.449,0.369 -1.104,0 -1.983,-0.396 -2.637,-1.188 -0.655,-0.792 -0.981,-1.92 -0.981,-3.384 z m 1.529,-0.018 c 0,1.057 0.21,1.879 0.63,2.467 0.42,0.588 1.014,0.882 1.782,0.882 0.408,0 0.792,-0.099 1.152,-0.298 0.36,-0.197 0.72,-0.5 1.08,-0.908 v -4.572 c -0.372,-0.336 -0.729,-0.572 -1.071,-0.711 -0.342,-0.138 -0.693,-0.207 -1.053,-0.207 -0.348,0 -0.675,0.081 -0.981,0.243 -0.306,0.162 -0.573,0.39 -0.801,0.685 -0.228,0.293 -0.408,0.645 -0.54,1.053 -0.132,0.407 -0.198,0.862 -0.198,1.366 z"
   id="path11"
   style="fill:#333333" />
	<path
   d="m 57.199,44.653 c -0.288,0 -0.531,-0.09 -0.729,-0.27 -0.198,-0.18 -0.297,-0.408 -0.297,-0.684 0,-0.289 0.099,-0.52 0.297,-0.693 0.198,-0.174 0.441,-0.262 0.729,-0.262 0.288,0 0.531,0.088 0.729,0.262 0.198,0.174 0.297,0.404 0.297,0.693 0,0.275 -0.099,0.504 -0.297,0.684 -0.198,0.18 -0.441,0.27 -0.729,0.27 z m -0.756,1.801 h 1.476 v 8.748 h -1.476 v -8.748 z"
   id="path13"
   style="fill:#333333" />
	<path
   d="m 62.221,46.454 h 1.224 l 0.126,1.26 h 0.054 c 0.42,-0.42 0.861,-0.771 1.323,-1.053 0.462,-0.282 0.999,-0.424 1.611,-0.424 0.924,0 1.599,0.289 2.025,0.864 0.426,0.576 0.64,1.429 0.64,2.556 v 5.545 h -1.477 v -5.347 c 0,-0.827 -0.132,-1.425 -0.396,-1.791 -0.264,-0.366 -0.684,-0.549 -1.26,-0.549 -0.457,0 -0.858,0.114 -1.206,0.342 -0.348,0.229 -0.744,0.564 -1.188,1.009 v 6.336 h -1.476 v -8.748 z"
   id="path15"
   style="fill:#333333" />
	<path
   d="m 72.751,56.875 c 0,-0.373 0.114,-0.727 0.342,-1.062 0.228,-0.335 0.54,-0.643 0.937,-0.918 v -0.072 c -0.217,-0.131 -0.399,-0.314 -0.549,-0.549 -0.15,-0.234 -0.226,-0.524 -0.226,-0.873 0,-0.371 0.103,-0.695 0.306,-0.972 0.204,-0.276 0.42,-0.491 0.648,-0.647 V 51.71 c -0.288,-0.24 -0.549,-0.561 -0.783,-0.963 -0.234,-0.402 -0.352,-0.867 -0.352,-1.396 0,-0.479 0.088,-0.911 0.262,-1.296 0.174,-0.384 0.41,-0.711 0.711,-0.98 0.3,-0.271 0.65,-0.478 1.053,-0.621 0.402,-0.145 0.825,-0.217 1.27,-0.217 0.24,0 0.465,0.021 0.675,0.063 0.21,0.042 0.399,0.093 0.567,0.153 h 3.041 v 1.134 h -1.799 c 0.203,0.204 0.375,0.462 0.512,0.774 0.139,0.312 0.207,0.653 0.207,1.025 0,0.468 -0.084,0.891 -0.252,1.27 -0.168,0.377 -0.395,0.695 -0.684,0.953 -0.287,0.258 -0.627,0.459 -1.016,0.604 -0.391,0.144 -0.809,0.216 -1.252,0.216 -0.217,0 -0.438,-0.026 -0.666,-0.081 -0.229,-0.055 -0.444,-0.129 -0.648,-0.225 -0.156,0.132 -0.287,0.279 -0.396,0.44 -0.107,0.162 -0.161,0.363 -0.161,0.603 0,0.277 0.108,0.505 0.323,0.685 0.217,0.181 0.625,0.271 1.225,0.271 h 1.691 c 1.02,0 1.785,0.164 2.295,0.494 0.51,0.33 0.766,0.861 0.766,1.594 0,0.408 -0.102,0.795 -0.307,1.16 -0.203,0.367 -0.498,0.688 -0.881,0.963 -0.385,0.277 -0.85,0.496 -1.395,0.658 -0.547,0.162 -1.162,0.242 -1.846,0.242 -0.54,0 -1.032,-0.051 -1.477,-0.152 -0.443,-0.102 -0.824,-0.256 -1.143,-0.459 -0.318,-0.205 -0.564,-0.451 -0.738,-0.738 -0.173,-0.29 -0.26,-0.626 -0.26,-1.009 z m 1.296,-0.199 c 0,0.469 0.225,0.84 0.675,1.117 0.45,0.275 1.071,0.414 1.863,0.414 0.42,0 0.801,-0.051 1.144,-0.154 0.342,-0.102 0.633,-0.232 0.873,-0.395 0.24,-0.163 0.426,-0.352 0.557,-0.568 0.133,-0.215 0.199,-0.438 0.199,-0.666 0,-0.408 -0.15,-0.689 -0.451,-0.846 -0.299,-0.156 -0.738,-0.234 -1.312,-0.234 h -1.513 c -0.169,0 -0.351,-0.008 -0.55,-0.025 -0.197,-0.02 -0.393,-0.059 -0.584,-0.117 -0.312,0.227 -0.541,0.467 -0.685,0.719 -0.144,0.252 -0.216,0.503 -0.216,0.755 z m 2.322,-5.237 c 0.252,0 0.488,-0.048 0.711,-0.144 0.222,-0.096 0.42,-0.234 0.594,-0.414 0.174,-0.18 0.309,-0.398 0.404,-0.657 0.098,-0.258 0.145,-0.549 0.145,-0.873 0,-0.647 -0.18,-1.149 -0.539,-1.503 -0.361,-0.354 -0.799,-0.531 -1.314,-0.531 -0.515,0 -0.954,0.178 -1.314,0.531 -0.359,0.354 -0.539,0.855 -0.539,1.503 0,0.324 0.047,0.615 0.143,0.873 0.097,0.259 0.231,0.478 0.406,0.657 0.174,0.18 0.371,0.318 0.594,0.414 0.22,0.096 0.457,0.144 0.709,0.144 z"
   id="path17"
   style="fill:#333333" />
	<path
   d="m 85.314,55.94 v 2.951 H 83.837 V 46.454 h 1.225 l 0.127,1.008 h 0.053 c 0.396,-0.336 0.832,-0.624 1.305,-0.864 0.475,-0.239 0.971,-0.36 1.486,-0.36 0.564,0 1.062,0.105 1.494,0.315 0.432,0.21 0.791,0.511 1.08,0.899 0.287,0.391 0.506,0.858 0.656,1.404 0.15,0.547 0.225,1.161 0.225,1.846 0,0.744 -0.102,1.406 -0.305,1.988 -0.205,0.582 -0.48,1.078 -0.828,1.485 -0.35,0.408 -0.75,0.718 -1.207,0.927 -0.455,0.209 -0.936,0.314 -1.439,0.314 -0.408,0 -0.812,-0.09 -1.215,-0.27 -0.403,-0.18 -0.807,-0.426 -1.215,-0.738 l 0.035,1.532 z m 0,-2.683 c 0.396,0.336 0.779,0.573 1.152,0.711 0.371,0.138 0.701,0.207 0.99,0.207 0.359,0 0.693,-0.081 0.998,-0.243 0.307,-0.162 0.57,-0.39 0.793,-0.684 0.221,-0.295 0.396,-0.657 0.521,-1.09 0.127,-0.432 0.189,-0.918 0.189,-1.457 0,-0.48 -0.043,-0.918 -0.127,-1.314 -0.084,-0.396 -0.219,-0.734 -0.404,-1.018 -0.186,-0.281 -0.426,-0.5 -0.721,-0.656 -0.293,-0.156 -0.645,-0.234 -1.053,-0.234 -0.371,0 -0.746,0.102 -1.125,0.307 -0.377,0.203 -0.783,0.498 -1.215,0.881 v 4.59 z"
   id="path19"
   style="fill:#333333" />
	<path
   d="m 94.531,50.845 c 0,-0.72 0.109,-1.364 0.332,-1.935 0.223,-0.571 0.516,-1.054 0.883,-1.449 0.365,-0.396 0.783,-0.699 1.25,-0.909 0.469,-0.21 0.955,-0.315 1.459,-0.315 0.551,0 1.047,0.097 1.484,0.289 0.438,0.191 0.805,0.467 1.098,0.827 0.295,0.36 0.52,0.792 0.676,1.296 0.156,0.504 0.234,1.068 0.234,1.692 0,0.323 -0.02,0.594 -0.055,0.81 h -5.904 c 0.061,0.948 0.352,1.698 0.873,2.25 0.521,0.553 1.203,0.828 2.043,0.828 0.42,0 0.807,-0.062 1.162,-0.189 0.354,-0.125 0.691,-0.29 1.016,-0.494 l 0.523,0.972 c -0.385,0.239 -0.811,0.45 -1.279,0.63 -0.467,0.18 -1.002,0.27 -1.602,0.27 -0.588,0 -1.137,-0.105 -1.646,-0.314 -0.509,-0.209 -0.955,-0.51 -1.332,-0.9 -0.379,-0.389 -0.676,-0.866 -0.891,-1.431 -0.216,-0.565 -0.324,-1.208 -0.324,-1.928 z m 6.119,-0.666 c 0,-0.899 -0.189,-1.587 -0.566,-2.062 -0.379,-0.474 -0.91,-0.711 -1.594,-0.711 -0.312,0 -0.609,0.063 -0.891,0.189 -0.282,0.126 -0.537,0.307 -0.766,0.54 -0.227,0.233 -0.416,0.522 -0.566,0.864 -0.15,0.342 -0.25,0.734 -0.297,1.179 h 4.68 z"
   id="path21"
   style="fill:#333333" />
	<path
   d="m 104.826,50.845 c 0,-0.708 0.105,-1.347 0.316,-1.917 0.209,-0.57 0.488,-1.053 0.836,-1.449 0.348,-0.396 0.75,-0.701 1.207,-0.918 0.455,-0.216 0.936,-0.324 1.439,-0.324 0.503,0 0.941,0.09 1.314,0.271 0.371,0.18 0.75,0.426 1.133,0.737 L 111,45.75 v -3.365 h 1.494 v 12.816 h -1.223 l -0.127,-1.026 h -0.053 c -0.35,0.336 -0.748,0.626 -1.197,0.872 -0.451,0.246 -0.934,0.369 -1.449,0.369 -1.105,0 -1.984,-0.396 -2.637,-1.188 -0.654,-0.791 -0.982,-1.919 -0.982,-3.383 z m 1.531,-0.018 c 0,1.057 0.209,1.879 0.629,2.467 0.42,0.588 1.014,0.882 1.783,0.882 0.408,0 0.791,-0.099 1.152,-0.298 0.359,-0.197 0.719,-0.5 1.078,-0.908 v -4.572 c -0.371,-0.336 -0.729,-0.572 -1.07,-0.711 -0.342,-0.138 -0.693,-0.207 -1.053,-0.207 -0.348,0 -0.676,0.081 -0.98,0.243 -0.307,0.162 -0.574,0.39 -0.801,0.685 -0.229,0.293 -0.408,0.645 -0.541,1.053 -0.133,0.408 -0.197,0.862 -0.197,1.366 z"
   id="path23"
   style="fill:#333333" />
	<path
   d="m 117.553,44.653 c -0.287,0 -0.531,-0.09 -0.729,-0.27 -0.199,-0.18 -0.297,-0.408 -0.297,-0.684 0,-0.289 0.098,-0.52 0.297,-0.693 0.197,-0.174 0.441,-0.262 0.729,-0.262 0.288,0 0.531,0.088 0.729,0.262 0.199,0.174 0.297,0.404 0.297,0.693 0,0.275 -0.098,0.504 -0.297,0.684 -0.198,0.18 -0.442,0.27 -0.729,0.27 z m -0.756,1.801 h 1.477 v 8.748 h -1.477 v -8.748 z"
   id="path25"
   style="fill:#333333" />
	<path
   d="m 122.143,52.933 c 0,-0.96 0.428,-1.694 1.287,-2.205 0.857,-0.51 2.223,-0.866 4.094,-1.071 0,-0.275 -0.025,-0.545 -0.08,-0.81 -0.055,-0.264 -0.15,-0.498 -0.289,-0.702 -0.137,-0.203 -0.32,-0.369 -0.549,-0.494 -0.227,-0.127 -0.521,-0.189 -0.881,-0.189 -0.516,0 -0.994,0.096 -1.432,0.287 -0.438,0.193 -0.83,0.408 -1.18,0.648 l -0.594,-1.025 c 0.408,-0.264 0.906,-0.52 1.494,-0.766 0.588,-0.246 1.236,-0.369 1.945,-0.369 1.066,0 1.842,0.328 2.32,0.981 0.48,0.654 0.721,1.526 0.721,2.619 v 5.364 h -1.225 l -0.125,-1.045 h -0.037 c -0.42,0.349 -0.873,0.645 -1.357,0.891 -0.486,0.246 -1,0.369 -1.539,0.369 -0.744,0 -1.359,-0.215 -1.846,-0.648 -0.485,-0.431 -0.727,-1.043 -0.727,-1.835 z m 1.457,-0.108 c 0,0.504 0.146,0.864 0.441,1.08 0.295,0.217 0.656,0.324 1.09,0.324 0.42,0 0.818,-0.099 1.195,-0.297 0.379,-0.197 0.777,-0.488 1.197,-0.873 v -2.43 c -0.73,0.096 -1.35,0.21 -1.854,0.342 -0.504,0.133 -0.908,0.288 -1.215,0.468 -0.307,0.181 -0.525,0.388 -0.656,0.621 -0.132,0.233 -0.198,0.489 -0.198,0.765 z"
   id="path27"
   style="fill:#333333" />
</g>
<g
   transform="matrix(0.74751551,0,0,0.74751551,18.9364,16.745569)"
   id="g29">
	<g
   id="g5">
		<path
   d="m 83.04,1.469 c 2.869,2.694 5.633,5.512 8.332,8.378 4.318,4.584 9.057,9.533 11.908,15.227 0.519,1.029 1.612,1.591 2.367,0.408 1.996,-3.133 4.525,-5.999 6.821,-8.908 3.555,-4.503 7.14,-8.983 10.727,-13.46 2.763,-3.448 5.607,-6.842 8.322,-10.327 1.847,-2.374 3.619,-5.422 3.018,-8.564 -0.671,-3.506 -3.867,-5.271 -7.175,-5.565 -5.996,-0.533 -10.814,5.347 -13.391,10.045 0.844,0.319 1.687,0.635 2.529,0.954 -0.995,-4.058 -4.175,-6.749 -8.108,-7.789 -3.525,-0.933 -7.969,-0.609 -10.553,2.276 -3.307,3.687 -2.412,9.502 -0.074,13.409 2.416,4.037 6.528,6.659 9.973,9.697 1.845,1.628 2.818,-2.771 1.417,-4.009 -2.686,-2.37 -5.699,-4.403 -8.024,-7.162 -1.748,-2.072 -3.729,-5.719 -1.509,-8.196 3.307,-3.687 12.778,-1.983 14.016,3.065 0.28,1.137 1.671,2.523 2.531,0.954 1.877,-3.424 4.412,-6.678 8.114,-8.168 1.549,-0.621 3.261,-0.624 4.843,-0.148 0.777,0.235 2.596,1.113 2.515,1.862 -0.128,1.174 -1.003,2.306 -1.653,3.237 -0.877,1.254 -1.896,2.401 -2.87,3.577 -1.191,1.436 -2.328,2.922 -3.495,4.376 -6.405,7.99 -12.935,15.906 -19.076,24.107 -0.378,0.502 -0.759,1.006 -1.096,1.536 0.788,0.136 1.576,0.269 2.365,0.408 -3.015,-6.015 -7.733,-11.146 -12.261,-16.03 -2.929,-3.161 -5.957,-6.25 -9.1,-9.198 -0.809,-0.759 -1.741,0.064 -2.03,0.877 -0.363,1.025 -0.203,2.364 0.617,3.131 l 0,0 z"
   id="path32"
   style="fill:#333333" />
	</g>
	<g
   id="g9">
		<path
   d="m 119.522,18.332 c 2.324,2.553 4.422,5.49 7.221,7.552 0.63,0.465 1.423,0.321 1.807,-0.402 2.046,-3.857 3.735,-7.899 6.068,-11.595 2.883,-4.563 6.931,-8.015 11.652,-10.539 1.709,-0.913 1.003,-5.436 -0.904,-4.417 -4.928,2.635 -9.087,6.153 -12.292,10.767 -2.72,3.914 -4.497,8.386 -6.724,12.58 0.605,-0.133 1.206,-0.269 1.809,-0.402 -2.797,-2.062 -4.896,-5.002 -7.221,-7.554 -0.762,-0.837 -1.765,0.129 -2.03,0.877 -0.386,1.093 -0.155,2.289 0.614,3.133 l 0,0 z"
   id="path35"
   style="fill:#333333" />
	</g>
</g>
</svg>