<?xml version="1.0" encoding="UTF-8" standalone="no"?>
<!-- Generator: Adobe Illustrator 16.0.0, SVG Export Plug-In . SVG Version: 6.00 Build 0)  -->

<svg
   xmlns:dc="http://purl.org/dc/elements/1.1/"
   xmlns:cc="http://creativecommons.org/ns#"
   xmlns:rdf="http://www.w3.org/1999/02/22-rdf-syntax-ns#"
   xmlns:svg="http://www.w3.org/2000/svg"
   xmlns="http://www.w3.org/2000/svg"
   xmlns:sodipodi="http://sodipodi.sourceforge.net/DTD/sodipodi-0.dtd"
   xmlns:inkscape="http://www.inkscape.org/namespaces/inkscape"
   version="1.1"
   id="Layer_1"
   x="0px"
   y="0px"
   width="150px"
   height="160px"
   viewBox="0 0 150 160"
   enable-background="new 0 0 150 160"
   xml:space="preserve"
   inkscape:version="0.48.2 r9819"
   sodipodi:docname="weddingpedia.svg"><metadata
   id="metadata81"><rdf:RDF><cc:Work
       rdf:about=""><dc:format>image/svg+xml</dc:format><dc:type
         rdf:resource="http://purl.org/dc/dcmitype/StillImage" /></cc:Work></rdf:RDF></metadata><defs
   id="defs79" /><sodipodi:namedview
   pagecolor="#ffffff"
   bordercolor="#666666"
   borderopacity="1"
   objecttolerance="10"
   gridtolerance="10"
   guidetolerance="10"
   inkscape:pageopacity="0"
   inkscape:pageshadow="2"
   inkscape:window-width="1268"
   inkscape:window-height="955"
   id="namedview77"
   showgrid="false"
   inkscape:zoom="1.475"
   inkscape:cx="-45"
   inkscape:cy="80"
   inkscape:window-x="0"
   inkscape:window-y="0"
   inkscape:window-maximized="0"
   inkscape:current-layer="Layer_1" />
<g
   id="g3"
   style="fill:#8ba037;fill-opacity:1">
	<g
   id="g5"
   style="fill:#8ba037;fill-opacity:1">
		<path
   fill="#A4B0B0"
   d="M43.299,33.72c2.87,2.693,5.634,5.511,8.333,8.377c4.318,4.585,9.057,9.533,11.909,15.226    c0.518,1.029,1.611,1.591,2.366,0.408c1.997-3.133,4.525-5.999,6.821-8.907c3.555-4.503,7.139-8.983,10.727-13.46    c2.763-3.448,5.607-6.841,8.322-10.328c1.848-2.373,3.618-5.421,3.018-8.563c-0.671-3.506-3.868-5.271-7.176-5.565    c-5.995-0.533-10.813,5.347-13.39,10.045c0.844,0.318,1.687,0.634,2.529,0.953c-0.996-4.058-4.175-6.748-8.108-7.788    c-3.524-0.933-7.969-0.609-10.553,2.275c-3.305,3.688-2.411,9.502-0.073,13.41c2.415,4.036,6.527,6.658,9.972,9.697    c1.845,1.628,2.819-2.771,1.417-4.009c-2.686-2.37-5.698-4.403-8.024-7.162c-1.747-2.072-3.728-5.72-1.508-8.197    c3.306-3.687,12.777-1.983,14.017,3.066c0.278,1.136,1.67,2.522,2.53,0.953c1.877-3.424,4.411-6.679,8.113-8.167    c1.55-0.621,3.261-0.626,4.844-0.148c0.778,0.235,2.595,1.113,2.514,1.862c-0.128,1.174-1.002,2.305-1.652,3.237    c-0.876,1.254-1.896,2.401-2.871,3.576c-1.19,1.436-2.327,2.923-3.494,4.378c-6.406,7.989-12.935,15.905-19.076,24.105    c-0.377,0.502-0.759,1.007-1.097,1.536c0.789,0.137,1.577,0.271,2.365,0.408c-3.015-6.014-7.732-11.145-12.26-16.03    c-2.93-3.161-5.957-6.249-9.1-9.198c-0.809-0.76-1.742,0.063-2.031,0.877C42.321,31.613,42.481,32.952,43.299,33.72L43.299,33.72z    "
   id="path7"
   style="fill:#8ba037;fill-opacity:1" />
	</g>
	<g
   id="g9"
   style="fill:#8ba037;fill-opacity:1">
		<path
   fill="#A4B0B0"
   d="M79.783,50.583c2.324,2.553,4.422,5.49,7.22,7.552c0.63,0.464,1.423,0.319,1.807-0.404    c2.046-3.856,3.735-7.898,6.069-11.594c2.883-4.564,6.932-8.015,11.653-10.54c1.707-0.912,1.002-5.435-0.904-4.416    c-4.929,2.635-9.089,6.153-12.294,10.767c-2.719,3.914-4.497,8.386-6.724,12.581c0.604-0.134,1.206-0.27,1.809-0.404    c-2.797-2.061-4.896-5-7.22-7.553c-0.762-0.838-1.766,0.129-2.03,0.876C78.782,48.542,79.014,49.738,79.783,50.583L79.783,50.583z    "
   id="path11"
   style="fill:#8ba037;fill-opacity:1" />
	</g>
</g>
<g
   id="g13"
   style="fill:#8ba037;fill-opacity:1">
	<path
   fill="#A4B0B0"
   d="M30.369,66.817h1.396l0.881,2.585l0.88-2.585h1.408l-1.331,3.553l0.989,2.497l2.211-6.071h1.65l-3.179,7.81   h-1.276l-1.353-3.278l-1.354,3.278h-1.275l-3.169-7.81h1.64l2.222,6.071l0.968-2.497L30.369,66.817z"
   id="path15"
   style="fill:#8ba037;fill-opacity:1" />
	<path
   fill="#A4B0B0"
   d="M45.68,73.274v1.331h-5.423v-7.81h5.324v1.331h-3.806v1.881h3.289v1.231h-3.289v2.035H45.68z"
   id="path17"
   style="fill:#8ba037;fill-opacity:1" />
	<path
   fill="#A4B0B0"
   d="M47.903,74.605v-7.81h2.838c0.638,0,1.197,0.103,1.678,0.308c0.479,0.205,0.882,0.484,1.204,0.836   s0.564,0.765,0.726,1.237c0.162,0.474,0.242,0.978,0.242,1.513c0,0.594-0.09,1.131-0.27,1.611s-0.438,0.892-0.775,1.232   c-0.337,0.341-0.742,0.604-1.215,0.792c-0.474,0.187-1.003,0.28-1.59,0.28H47.903z M53.062,70.689c0-0.374-0.052-0.719-0.154-1.034   s-0.253-0.586-0.451-0.813s-0.441-0.403-0.731-0.528s-0.618-0.187-0.984-0.187h-1.32v5.147h1.32c0.374,0,0.706-0.066,0.995-0.198   c0.29-0.132,0.532-0.313,0.727-0.544c0.194-0.231,0.343-0.504,0.445-0.819S53.062,71.057,53.062,70.689z"
   id="path19"
   style="fill:#8ba037;fill-opacity:1" />
	<path
   fill="#A4B0B0"
   d="M56.801,74.605v-7.81h2.838c0.638,0,1.197,0.103,1.678,0.308c0.479,0.205,0.882,0.484,1.204,0.836   s0.564,0.765,0.726,1.237c0.162,0.474,0.242,0.978,0.242,1.513c0,0.594-0.09,1.131-0.27,1.611s-0.438,0.892-0.775,1.232   c-0.337,0.341-0.742,0.604-1.215,0.792c-0.474,0.187-1.003,0.28-1.59,0.28H56.801z M61.96,70.689c0-0.374-0.052-0.719-0.154-1.034   s-0.253-0.586-0.451-0.813s-0.441-0.403-0.731-0.528s-0.618-0.187-0.984-0.187h-1.32v5.147h1.32c0.374,0,0.706-0.066,0.995-0.198   c0.29-0.132,0.532-0.313,0.727-0.544c0.194-0.231,0.343-0.504,0.445-0.819S61.96,71.057,61.96,70.689z"
   id="path21"
   style="fill:#8ba037;fill-opacity:1" />
	<path
   fill="#A4B0B0"
   d="M65.7,74.605v-7.799h1.519v7.799H65.7z"
   id="path23"
   style="fill:#8ba037;fill-opacity:1" />
	<path
   fill="#A4B0B0"
   d="M71.365,69.601v5.005h-1.518v-7.81h1.177l4.07,5.126v-5.115h1.518v7.799H75.38L71.365,69.601z"
   id="path25"
   style="fill:#8ba037;fill-opacity:1" />
	<path
   fill="#A4B0B0"
   d="M84.476,73.726c-0.601,0.623-1.294,0.935-2.078,0.935c-0.499,0-0.969-0.109-1.408-0.33   c-0.439-0.22-0.823-0.515-1.149-0.885c-0.327-0.37-0.583-0.798-0.771-1.282c-0.187-0.483-0.28-0.985-0.28-1.507   c0-0.535,0.094-1.039,0.28-1.513c0.188-0.473,0.447-0.887,0.781-1.242c0.334-0.356,0.727-0.639,1.178-0.848   s0.939-0.313,1.468-0.313c0.712,0,1.32,0.154,1.826,0.462c0.506,0.309,0.888,0.723,1.144,1.243l-1.133,0.836   c-0.19-0.389-0.453-0.686-0.786-0.891c-0.334-0.205-0.702-0.309-1.105-0.309c-0.323,0-0.614,0.07-0.874,0.209   c-0.262,0.14-0.482,0.33-0.666,0.572s-0.326,0.521-0.43,0.836c-0.102,0.315-0.153,0.649-0.153,1.001   c0,0.367,0.055,0.71,0.165,1.028c0.109,0.319,0.264,0.597,0.462,0.831s0.431,0.42,0.698,0.556s0.562,0.203,0.886,0.203   c0.719,0,1.368-0.355,1.946-1.066v-0.551h-1.572v-1.11h2.827v4.015h-1.255V73.726z"
   id="path27"
   style="fill:#8ba037;fill-opacity:1" />
	<path
   fill="#A4B0B0"
   d="M88.041,74.605v-7.81h3.311c0.359,0,0.691,0.075,0.996,0.225c0.305,0.15,0.566,0.349,0.787,0.595   c0.219,0.245,0.392,0.524,0.516,0.836c0.125,0.312,0.188,0.625,0.188,0.94c0,0.33-0.059,0.65-0.176,0.962   c-0.117,0.312-0.282,0.589-0.495,0.831s-0.47,0.437-0.771,0.583s-0.631,0.22-0.989,0.22h-1.849v2.618H88.041z M89.558,70.656h1.76   c0.279,0,0.512-0.113,0.699-0.341s0.28-0.535,0.28-0.924c0-0.198-0.029-0.376-0.088-0.533c-0.059-0.158-0.136-0.292-0.231-0.402   c-0.095-0.109-0.207-0.192-0.335-0.247s-0.259-0.082-0.391-0.082h-1.694V70.656z"
   id="path29"
   style="fill:#8ba037;fill-opacity:1" />
	<path
   fill="#A4B0B0"
   d="M101.295,73.274v1.331h-5.423v-7.81h5.324v1.331H97.39v1.881h3.289v1.231H97.39v2.035H101.295z"
   id="path31"
   style="fill:#8ba037;fill-opacity:1" />
	<path
   fill="#A4B0B0"
   d="M103.517,74.605v-7.81h2.838c0.639,0,1.197,0.103,1.678,0.308s0.883,0.484,1.205,0.836   s0.564,0.765,0.726,1.237c0.161,0.474,0.242,0.978,0.242,1.513c0,0.594-0.09,1.131-0.27,1.611s-0.438,0.892-0.775,1.232   s-0.743,0.604-1.216,0.792c-0.473,0.187-1.002,0.28-1.59,0.28H103.517z M108.677,70.689c0-0.374-0.053-0.719-0.154-1.034   c-0.104-0.315-0.254-0.586-0.451-0.813c-0.198-0.228-0.441-0.403-0.731-0.528s-0.618-0.187-0.985-0.187h-1.319v5.147h1.319   c0.375,0,0.707-0.066,0.996-0.198s0.531-0.313,0.727-0.544c0.193-0.231,0.342-0.504,0.445-0.819   C108.625,71.397,108.677,71.057,108.677,70.689z"
   id="path33"
   style="fill:#8ba037;fill-opacity:1" />
	<path
   fill="#A4B0B0"
   d="M112.416,74.605v-7.799h1.519v7.799H112.416z"
   id="path35"
   style="fill:#8ba037;fill-opacity:1" />
	<path
   fill="#A4B0B0"
   d="M115.771,74.605l3.08-7.81h1.232l3.068,7.81h-1.605l-0.715-1.947h-2.74l-0.715,1.947H115.771z    M119.466,68.435l-1.121,3.157h2.211L119.466,68.435z"
   id="path37"
   style="fill:#8ba037;fill-opacity:1" />
</g>
<g
   id="g39"
   style="fill:#8ba037;fill-opacity:1">
	<g
   id="g41"
   style="fill:#8ba037;fill-opacity:1">
		<path
   fill="#A4B0B0"
   d="M43.299,113.72c2.87,2.693,5.634,5.512,8.333,8.377c4.318,4.585,9.056,9.533,11.91,15.227    c0.517,1.029,1.611,1.592,2.365,0.408c1.997-3.134,4.525-5.999,6.821-8.907c3.555-4.504,7.139-8.983,10.727-13.46    c2.764-3.448,5.607-6.842,8.322-10.328c1.848-2.373,3.617-5.421,3.018-8.562c-0.672-3.507-3.867-5.271-7.176-5.566    c-5.995-0.532-10.813,5.348-13.39,10.046c0.844,0.318,1.687,0.634,2.529,0.953c-0.996-4.058-4.175-6.748-8.108-7.789    c-3.525-0.932-7.969-0.607-10.553,2.275c-3.306,3.688-2.411,9.502-0.073,13.41c2.415,4.037,6.527,6.659,9.972,9.698    c1.844,1.627,2.819-2.771,1.417-4.01c-2.686-2.369-5.698-4.402-8.024-7.162c-1.747-2.071-3.728-5.72-1.508-8.195    c3.306-3.688,12.777-1.984,14.017,3.066c0.279,1.136,1.671,2.521,2.53,0.952c1.878-3.424,4.412-6.679,8.115-8.168    c1.549-0.621,3.26-0.626,4.843-0.147c0.778,0.235,2.595,1.112,2.514,1.862c-0.128,1.173-1.002,2.305-1.652,3.236    c-0.876,1.255-1.895,2.402-2.87,3.575c-1.191,1.437-2.328,2.924-3.495,4.378c-6.406,7.99-12.935,15.905-19.076,24.105    c-0.377,0.503-0.759,1.007-1.097,1.537c0.788,0.136,1.577,0.271,2.365,0.406c-3.015-6.014-7.731-11.146-12.26-16.03    c-2.93-3.16-5.957-6.249-9.1-9.197c-0.809-0.76-1.742,0.063-2.03,0.877C42.321,111.614,42.481,112.952,43.299,113.72    L43.299,113.72z"
   id="path43"
   style="fill:#8ba037;fill-opacity:1" />
	</g>
	<g
   id="g45"
   style="fill:#8ba037;fill-opacity:1"
   transform="matrix(0.9880362,0.15422213,-0.15422213,0.9880362,24.419957,-12.948959)">
		<path
   d="m 79.207,129.027 c 2.021,2.8 3.774,5.955 6.32,8.319 0.574,0.533 1.379,0.478 1.842,-0.198 2.468,-3.6 4.603,-7.426 7.339,-10.834 3.38,-4.211 7.792,-7.182 12.769,-9.157 1.799,-0.714 1.61,-5.288 -0.401,-4.49 -5.194,2.062 -9.724,5.089 -13.43,9.312 -3.143,3.582 -5.414,7.824 -8.101,11.742 0.615,-0.065 1.228,-0.133 1.843,-0.198 -2.547,-2.362 -4.3,-5.519 -6.321,-8.319 -0.662,-0.919 -1.769,-0.07 -2.116,0.642 -0.509,1.041 -0.412,2.255 0.256,3.181 l 0,0 z"
   id="path47"
   style="fill:#8ba037;fill-opacity:1"
   inkscape:connector-curvature="0" />
	</g>
</g>
<g
   id="g49"
   style="fill:#8ba037;fill-opacity:1">
	<path
   fill="#A4B0B0"
   d="M30.369,146.818h1.396l0.881,2.585l0.88-2.585h1.408l-1.331,3.553l0.989,2.497l2.211-6.071h1.65   l-3.179,7.81h-1.276l-1.353-3.278l-1.354,3.278h-1.275l-3.169-7.81h1.64l2.222,6.071l0.968-2.497L30.369,146.818z"
   id="path51"
   style="fill:#8ba037;fill-opacity:1" />
	<path
   fill="#A4B0B0"
   d="M45.68,153.275v1.331h-5.423v-7.81h5.324v1.331h-3.806v1.881h3.289v1.231h-3.289v2.035H45.68z"
   id="path53"
   style="fill:#8ba037;fill-opacity:1" />
	<path
   fill="#A4B0B0"
   d="M47.903,154.606v-7.81h2.838c0.638,0,1.197,0.103,1.678,0.308c0.479,0.205,0.882,0.484,1.204,0.836   s0.564,0.765,0.726,1.237c0.162,0.474,0.242,0.978,0.242,1.513c0,0.594-0.09,1.131-0.27,1.611s-0.438,0.892-0.775,1.232   c-0.337,0.341-0.742,0.604-1.215,0.792c-0.474,0.187-1.003,0.28-1.59,0.28H47.903z M53.062,150.69c0-0.374-0.052-0.719-0.154-1.034   s-0.253-0.586-0.451-0.813s-0.441-0.403-0.731-0.528s-0.618-0.187-0.984-0.187h-1.32v5.147h1.32c0.374,0,0.706-0.066,0.995-0.198   c0.29-0.132,0.532-0.313,0.727-0.544c0.194-0.231,0.343-0.504,0.445-0.819S53.062,151.057,53.062,150.69z"
   id="path55"
   style="fill:#8ba037;fill-opacity:1" />
	<path
   fill="#A4B0B0"
   d="M56.801,154.606v-7.81h2.838c0.638,0,1.197,0.103,1.678,0.308c0.479,0.205,0.882,0.484,1.204,0.836   s0.564,0.765,0.726,1.237c0.162,0.474,0.242,0.978,0.242,1.513c0,0.594-0.09,1.131-0.27,1.611s-0.438,0.892-0.775,1.232   c-0.337,0.341-0.742,0.604-1.215,0.792c-0.474,0.187-1.003,0.28-1.59,0.28H56.801z M61.96,150.69c0-0.374-0.052-0.719-0.154-1.034   s-0.253-0.586-0.451-0.813s-0.441-0.403-0.731-0.528s-0.618-0.187-0.984-0.187h-1.32v5.147h1.32c0.374,0,0.706-0.066,0.995-0.198   c0.29-0.132,0.532-0.313,0.727-0.544c0.194-0.231,0.343-0.504,0.445-0.819S61.96,151.057,61.96,150.69z"
   id="path57"
   style="fill:#8ba037;fill-opacity:1" />
	<path
   fill="#A4B0B0"
   d="M65.7,154.606v-7.799h1.519v7.799H65.7z"
   id="path59"
   style="fill:#8ba037;fill-opacity:1" />
	<path
   fill="#A4B0B0"
   d="M71.365,149.601v5.005h-1.518v-7.81h1.177l4.07,5.126v-5.115h1.518v7.799H75.38L71.365,149.601z"
   id="path61"
   style="fill:#8ba037;fill-opacity:1" />
	<path
   fill="#A4B0B0"
   d="M84.476,153.726c-0.601,0.623-1.294,0.935-2.078,0.935c-0.499,0-0.969-0.109-1.408-0.33   c-0.439-0.22-0.823-0.515-1.149-0.885c-0.327-0.37-0.583-0.798-0.771-1.282c-0.187-0.483-0.28-0.985-0.28-1.507   c0-0.535,0.094-1.039,0.28-1.513c0.188-0.473,0.447-0.887,0.781-1.242c0.334-0.356,0.727-0.639,1.178-0.848   s0.939-0.313,1.468-0.313c0.712,0,1.32,0.154,1.826,0.462c0.506,0.309,0.888,0.723,1.144,1.243l-1.133,0.836   c-0.19-0.389-0.453-0.686-0.786-0.891c-0.334-0.205-0.702-0.309-1.105-0.309c-0.323,0-0.614,0.07-0.874,0.209   c-0.262,0.14-0.482,0.33-0.666,0.572s-0.326,0.521-0.43,0.836c-0.102,0.315-0.153,0.649-0.153,1.001   c0,0.367,0.055,0.71,0.165,1.028c0.109,0.319,0.264,0.597,0.462,0.831s0.431,0.42,0.698,0.556s0.562,0.203,0.886,0.203   c0.719,0,1.368-0.355,1.946-1.066v-0.551h-1.572v-1.11h2.827v4.015h-1.255V153.726z"
   id="path63"
   style="fill:#8ba037;fill-opacity:1" />
	<path
   fill="#A4B0B0"
   d="M88.041,154.606v-7.81h3.311c0.359,0,0.691,0.075,0.996,0.225c0.305,0.15,0.566,0.349,0.787,0.595   c0.219,0.245,0.392,0.524,0.516,0.836c0.125,0.312,0.188,0.625,0.188,0.94c0,0.33-0.059,0.65-0.176,0.962   c-0.117,0.312-0.282,0.589-0.495,0.831s-0.47,0.437-0.771,0.583s-0.631,0.22-0.989,0.22h-1.849v2.618H88.041z M89.558,150.657h1.76   c0.279,0,0.512-0.113,0.699-0.341s0.28-0.535,0.28-0.924c0-0.198-0.029-0.376-0.088-0.533c-0.059-0.158-0.136-0.292-0.231-0.402   c-0.095-0.109-0.207-0.192-0.335-0.247s-0.259-0.082-0.391-0.082h-1.694V150.657z"
   id="path65"
   style="fill:#8ba037;fill-opacity:1" />
	<path
   fill="#A4B0B0"
   d="M101.295,153.275v1.331h-5.423v-7.81h5.324v1.331H97.39v1.881h3.289v1.231H97.39v2.035H101.295z"
   id="path67"
   style="fill:#8ba037;fill-opacity:1" />
	<path
   fill="#A4B0B0"
   d="M103.517,154.606v-7.81h2.838c0.639,0,1.197,0.103,1.678,0.308s0.883,0.484,1.205,0.836   s0.564,0.765,0.726,1.237c0.161,0.474,0.242,0.978,0.242,1.513c0,0.594-0.09,1.131-0.27,1.611s-0.438,0.892-0.775,1.232   s-0.743,0.604-1.216,0.792c-0.473,0.187-1.002,0.28-1.59,0.28H103.517z M108.677,150.69c0-0.374-0.053-0.719-0.154-1.034   c-0.104-0.315-0.254-0.586-0.451-0.813c-0.198-0.228-0.441-0.403-0.731-0.528s-0.618-0.187-0.985-0.187h-1.319v5.147h1.319   c0.375,0,0.707-0.066,0.996-0.198s0.531-0.313,0.727-0.544c0.193-0.231,0.342-0.504,0.445-0.819   C108.625,151.398,108.677,151.057,108.677,150.69z"
   id="path69"
   style="fill:#8ba037;fill-opacity:1" />
	<path
   fill="#A4B0B0"
   d="M112.416,154.606v-7.799h1.519v7.799H112.416z"
   id="path71"
   style="fill:#8ba037;fill-opacity:1" />
	<path
   fill="#A4B0B0"
   d="M115.771,154.606l3.08-7.81h1.232l3.068,7.81h-1.605l-0.715-1.947h-2.74l-0.715,1.947H115.771z    M119.466,148.435l-1.121,3.157h2.211L119.466,148.435z"
   id="path73"
   style="fill:#8ba037;fill-opacity:1" />
</g>

</svg>